/* XPM */
static char *result[] = {
/* columns rows colors chars-per-pixel */
"64 64 178 2 ",
"   c #2F3C22",
".  c #323E23",
"X  c #413E27",
"o  c #44362A",
"O  c #4C362E",
"+  c #453C2A",
"@  c #4A3C2E",
"#  c #503C2E",
"$  c #4E3D31",
"%  c #553E35",
"&  c #583F38",
"*  c #32401F",
"=  c #28561D",
"-  c #0B7612",
";  c #117A15",
":  c #167A19",
">  c #197C1B",
",  c #297C1C",
"<  c #354323",
"1  c #3A4525",
"2  c #374924",
"3  c #3C4C25",
"4  c #3C432A",
"5  c #3E4D28",
"6  c #2F5C21",
"7  c #3C5025",
"8  c #335D24",
"9  c #3E542A",
"0  c #3C5B2C",
"q  c #3A612B",
"w  c #267122",
"e  c #5A5B1E",
"r  c #414326",
"t  c #404C27",
"y  c #43442B",
"u  c #4A432E",
"i  c #434B2B",
"p  c #494B2E",
"a  c #44502B",
"s  c #48512F",
"d  c #425A2F",
"f  c #4C4432",
"g  c #4C4B31",
"h  c #4B4936",
"j  c #544335",
"k  c #594237",
"l  c #524C35",
"z  c #574339",
"x  c #5C453B",
"c  c #564C39",
"v  c #5D4A3D",
"b  c #4B5131",
"n  c #485C33",
"m  c #525135",
"M  c #54523A",
"N  c #5B533D",
"B  c #60473D",
"V  c #614A3F",
"C  c #61513F",
"Z  c #41632D",
"A  c #4F633B",
"S  c #52653C",
"D  c #5E4A41",
"F  c #5E5142",
"G  c #5F5941",
"H  c #634D43",
"J  c #684E45",
"K  c #655245",
"L  c #695247",
"P  c #655945",
"I  c #6B5A47",
"U  c #665248",
"Y  c #6C554A",
"T  c #6E594D",
"R  c #70574D",
"E  c #71594E",
"W  c #6E5A50",
"Q  c #735D52",
"!  c #795F53",
"~  c #6D614F",
"^  c #6B6051",
"/  c #756156",
"(  c #7C6256",
")  c #766259",
"_  c #7A655B",
"`  c #7D695E",
"'  c #7E6A61",
"]  c #987B35",
"[  c #826D63",
"{  c #857166",
"}  c #867369",
"|  c #88746B",
" . c #00860D",
".. c #09870D",
"X. c #07880D",
"o. c #0D890C",
"O. c #138B0C",
"+. c #1A8D0C",
"@. c #0A8510",
"#. c #068812",
"$. c #228F0B",
"%. c #318F0F",
"&. c #2B920A",
"*. c #32940A",
"=. c #278C10",
"-. c #399010",
";. c #319C3A",
":. c #46960F",
">. c #439A09",
",. c #4C9C09",
"<. c #519E09",
"1. c #5B9E0B",
"2. c #46891C",
"3. c #629D0D",
"4. c #5DA208",
"5. c #65A408",
"6. c #73A907",
"7. c #7DAB06",
"8. c #76A30C",
"9. c #648F23",
"0. c #739326",
"q. c #3DA045",
"w. c #44A54E",
"e. c #4BA954",
"r. c #52AB5A",
"t. c #5CB165",
"y. c #A0900F",
"u. c #A38E13",
"i. c #A29212",
"p. c #AC9318",
"a. c #B4941E",
"s. c #83AC06",
"d. c #8AAF05",
"f. c #8BAA0B",
"g. c #9AAF0A",
"h. c #8DB006",
"j. c #9AB207",
"k. c #9CB404",
"l. c #BFA609",
"z. c #A3B704",
"x. c #ADB904",
"c. c #ABB408",
"v. c #B5BC03",
"b. c #BBBE03",
"n. c #B2B608",
"m. c #88922B",
"M. c #95922C",
"N. c #B69521",
"B. c #BA9724",
"V. c #BE9D2A",
"C. c #A39531",
"Z. c #AC9434",
"A. c #AE9936",
"S. c #B19734",
"D. c #B49833",
"F. c #BC9B35",
"G. c #CBAD0E",
"H. c #C0BF03",
"J. c #CABF06",
"K. c #DBB60E",
"L. c #DFB710",
"P. c #E6BC18",
"I. c #C09B35",
"U. c #CFAE24",
"Y. c #D6B024",
"T. c #CBA13B",
"R. c #D3A23B",
"E. c #E2B327",
"W. c #C4C003",
"Q. c #CEC402",
"!. c #D3C402",
"~. c #DCC405",
"^. c #DDC801",
"/. c #E1C901",
"(. c #E9C20F",
"). c #F3CE01",
"_. c #F9CF01",
"`. c #FED200",
/* pixels */
"R E R Y v V T E Q K x L H E E E v D i 1 i < 5 < 1 1 < < < 2 i g I T Y Y B V R R E L k k V E E E B V J J T E Y I I T V L E E E I ",
"R E H c K g N Y Y x x H R E R K H Y 1 1 1 2 <   < .   .   < 1 1 3 N H K R B C I I k B B R E E C C R Y Y Y Y L N E Y c i m P E Y ",
"N l l L s m 9 g K K Q ( ( ( R I I Q 4 .               < 1 2 1 g v j x Q R R J B V K E ( [ [ C p c Y B g g i a 3 y K Y i s N R I ",
"H l i 2 t 5 < 4 Y L Y E R E E x Y H y . 4 y c Y v M .   1 3 l x z / ' W Y E K r i 7 a m C C l j j v y < . * 2 <   h Y g t m K R ",
"D $ o u 3 * < c E Y Q R R L L Y k x K E ! ! E R Y / G 1 < 3 l H D ' ) Q U y . < 5 m P / P H K K i 7 5 3 7 < . < * 3 l p 3 t K L ",
"D Y m 1 1 2 M ` E Q Y R L x H Y Y E I R E E E R Y Y Y p 4 3 5 v D Q W U h . 4 i p c l c D D z y t f t t i y 2 3 < 7 3 t X 1 c B ",
"U Y g p 5 3 1 4 c N L Y x L Y Y J V B J L L J L Y ( L a 3 j v c K W R E Q M 1 2 2 2 b Y z Y D h v + t t N y i a i 5 5 1 y i C K ",
"Y U H K c i < 1 1 3 r H Y E E E K k Y E ! [ [ ( ( ! L g 5 i Y T Y Y Q Y Q Q H . o o u m U W R U J % M K ! p a l p i f 5 3 v P T ",
"E L L L Y i 5 4 3 3 $ Y T Y E E T x R ( ! E E E E E E x H C H R W Y U L R L H t t r O L W W W R Y v T / T 3 F z s l s j l I R R ",
"E Y Q ! T g l 3 5 @ Q W Y Q Y B Y Y I T Y E E E R Y H H ! ! E E T Y Q ! ! R R K v % x Q ! W Y B B x Y W D M T W ) T l v E E E E ",
"E Y ! ( ( I h p j v / Q H H J H B x B x H R Y H K x H E ( ( Q E E ( ( ( [ ! E Y Q H _ _ ' W J H H H _ ) K I W ' { ' Y / ( ( ( ( ",
"E Y E Q E Y D Y R K W W ' Q x x L Y x k & H H H j i g I E E E R E T E Q E E E Q R U Q Q W U Y B H Q _ ' W H D ) _ D ) / Q E R R ",
"I Y Q E W R W R W U U ! ` ! U Q ( ( Y x x H j p r r 3 T W L Y Q / E T E E E R E E U J U D W W Q ( ( Y H D H Q W ' ' U U I Y Y Y ",
"L E E E R R R R Y U U D W Q Q Y E R L E E j b i r 2 2 H E Y E Q Y Q Q Q R E Q Q Y H U ! Y Q ! R E E L T R x ! ' | | Q H E I R E ",
"W H L Y W R H H U ' } ! E [ Q E E R Y E E c f r 1 1 y Y Q R E E Y / Y Y I E L Q H H R U ! _ Q R E R Y Q R Y D U _ ) H U E E E E ",
"Y H U U J J H D U Q Q Q R E E R E R Q K N M a 1 < . 4 c L Q R R Y T K H H H L H H % W [ [ R R R E R Q L R U D ! U D H H I E R E ",
"Y H H H ) [ Y _ E Q Y Y Y Q E L L R Y v r r 7 7 7 1 K h f K T Q Y U H h 4 l U _ W L W ) ( Q Y I Y Y Y H x x Y Q W ! ( J B Y E E ",
"H x x L ' _ Y W Y R H & Y L Y Q R B x v L g t 7 3 1 <   . . v L D y . < < u U Y T W U W W L Y E R H x H Y H Y L H E E R _ { / Y ",
"v Y ! ! ! Q D U J Y U & H H H H H H Y T N p i 9 7 < 2 3 t < 4 < 5 4 1 a 3 $ D Y Y L K z H v K K H H Y R Y K Y E H x H R _ ) / H ",
"Q E ( ! ! U & Y H x H U T T H x Q v I Y F c t 3 1 3 3 7 5 7 + p g 9 b s g D v I v v v L T Y P N j v T Y I T Y H x H x H T T / T ",
"E E E E R H H J Y ] ~.@. . . . . . . .$.X. . . . . . . . . . . . . . . . . . . . . . . . . . . . . . . . .@.c L R R Y R H % k I ",
"E E R R U J E E Q B.`.3. .,.>. .O.6.X.W.+.&.1. . . . . . .+.J... . . . . . . . . . . . . .X. . . . . . . . .A W R J R R H H B Y ",
"E E R Y H Y E E R B.`.J.#.>.b.X.5.k. .s.o.j./.4. .7.z.s.<.+.!...$.j.k.&. . .#. . . . . . .#. .#. . . . . . .8 M Y E [ ! J J H T ",
"L R Y H D x H Y L B.`.`.:.X.!.$.v.>. .Q.+.4.v.o.5.H.&.H.7.+.!...v.7.5.W.#. . . . .#. . .#. . . . . . . . . .d H E [ ! [ J H v Y ",
"k k B % L E H J E B.`.`.n. .7.d.Q.X. .Q.+.,.x. .7.d. .h.7.+.!.o.Q.j.h.7.X. . . . . . .#. . . . . . . . . . .6 m Y ! E R J x % k ",
"% % % x Y E R B B N.`.`.`.%.&._.s. . .Q.+.*.^.3.&.^.x./.7.+.!. .6.H.v.s. . . . .#. . . . . . . . . . . . . .0 v V L Y H B R L & ",
"B k & R ( ( E L % a.`.`.`.g. .+.X. . .+. . .O.o. .O.$.O.o.X.O. . .+.$. . . . . .#. . . . . . .#. . . . . . .8 v C J V L L Q Y H ",
"E R Y Y I N b i i a.`.`.`.(.0.9.0.0.9.0.2. .@.w.e.r.;.e.r.e.w.e.w.w.;.q.r.r.t.e. . .#. .#. . . . . . . . . .d K V B R E W Y Y J ",
"L R L Y E Y G f p i.`.`.`.E.R.Z.Z.S.C.R.C. . . . . . . . .X. . . . . . . . . . . . . .#. . . . . . . . . . .n B E [ ` Q E Q H H ",
"& H I B K H v l i y.`.`.`.Y.F.D.R.R.Z.F.M. . . . . . . . . . . . . . . . . . . . . . . . . . . . . . . . . .A H [ } [ E L J & % ",
"k B B B v m b p p i.`.`.`.E.R.F.R.R.F.R.C. . . . . . . . . . . . . . . . . . . . . . . . . . . . . . . . . .S E ` ` Q x H J H x ",
"R R E E B N l i 3 y.`.`.`.U.D.S.R.R.Z.S.M. . . . . . . . . . . . . . . . . . . . . . . . . . . . . . . . . .A Y L H ` Y Q R R Y ",
"R Q Y Y x j l h f p.`.`.`.E.R.S.Z.Z.Z.R.p. . . . . . . . . . . . . . . . . . . . . . . . . . . . . . . . . .S Y R R K I R E E R ",
"Y E H H T H B f 4 i.`.`.`.P.R.I.R.T.A.T.m. . . . . . . . . . . . . . . . . . . . . . . . . . . . . . . . . .A R R Y B Y R E E Y ",
"H H x Q E T U & v a.`.`.`.`._.`.`.-. . . . . . . . . . . . . . . . . . . . . . . . . . . . . . . . . . . . .n B x L R B Y R Q Y ",
"H H L Y L Q R x T N.`.`.`.`.`.`.`.c. . . . . . . . . . . . . . . . . . . . . . . . . . . . . . . . . . . . .n R V V E P Y Q E Y ",
"D D & x J L H U T B.`.`.`.`.`._.`.).=. . . . . . . . . . . . . . . . . . . . . . . . . . . . . . . . . . . .S E Y H [ { { Y U K ",
"D Y W H D z H ! / B.`.`.`.`.`.`.`.`.f. . . . . . . . . . . . . . . . . . . . . . . . . . . . . . . . . . . .S E Y I Q / Q U H B ",
"U Q R E T H } | ` V.`.`.`.`.`.`.`.`.).O. . . . . .-  . . . . . . . . . . . . . . . . . . . . . . . . . . . .8 C K ( Y / Q / T L ",
"L L Y Q T U { _ W V.`.`.`.`.`.`.`.`.`.8. . . . . . . . . . . . . . . . . . . . . . . . . . . . . . . . . . .Z C H ! Y ' / Y E E ",
"E L J R R Y / Q Q V.`.`.`.`.`.`.`.`.`.~.@. . . . . . . . . . . . . . . . . . . . . . . . . . . . . . . . . .Z s g L Y T E T E E ",
"Q Y E E ! ! Q L H V.`.`.`.`._.`._.`.`.`.3. . . . . . . . . . . . . . . . . . . . . . . . . . . . . . . . .X.q p i l V c / E E E ",
"R Y ! [ ! ! E Y I N.`.`.`.`.`.`.`.`.`.`.J.X. . . . . . . . . . . . . . . . . . . . . . . . . . . . . . . . .6 u 5 + l P I [ E E ",
"E Y Q E Q E R Q E N.`.`.`.`.`.`.`.`.`.`.`.:. . . . . . . . . . . . . . .- X. . . . . . . . . . . . . . . . .6 t 2 r y x R E ! E ",
"L Y E E E R R Q E N.`.`.`.`.`.`.`.`.`.`.`.n. . . . . . . . . . . . . . . . . . . . . . . . . . . . . . . . .= t * r r N C Y L R ",
"Y R E E E Q I v N p.`.`.`.`.`.`.`.`.`.`.`._.%. . . . . . . . . . . . . . . . . . . . . . . . . . . . . . . .= * a t X V R R R R ",
"R H Y Y R R c l p u.`._.`.`.`.`.`.`.`.`.`.`.g. . . . . . . . . . . . . .X. . . . . . . . . . . . . . . .X. .0 * t + j L E E E E ",
"R { ` / K l i 5 1 e l.K.P.L.L.L.L.L.K.P.L.L.G., : : : : : > > > ; ; - - - : ; ; - - - - - - - - ; : > : > w m t t p B V Y E E E ",
"/ ` Q L j p t r 5 3 < M F Y Y L P L R K k B L H K ( ( J H L R E I l 2 2 < g 1 * * *   * . 5 7 3 t p N H x D L D H ( ( J L / E Q ",
"K I Y Q K t i i 5 2 * T ^ G Y T N v x v Y H Y L B E E R L L ( Y v r r 2 5 1 < y < 1 < * 2 3 7 a l x x B Y H Y L x Q Q Y _ / H L ",
"_ T ! I C y i t 7 7 2 4 i 3 ~ G a 1 t a s N L R H B L E H ` { T H x K s g u i v 3 5 t 3 2 t 5 y i C R E Q H Y Y H B H _ } ' H k ",
"E E ( E M l r i 5 3 * 7 5 7 7 5 t 7 t C K a C K B Y E H K _ W ~ T T Y I m H j C 3 3 i 3 t i i 3 O j Y R L T T L v H x ( ` W / T ",
"E E E R K p 5 i i 3 i 5 i 5 g 7 * t a t j x f L R Y R R C E / ! W E I E l B H K t p c t 5 i l 5 k v B x x v x L R Y R E / W T T ",
"E E R E K N v v t p 5 p i i H p p i C d u H R Q E L E R V J B Y E E E E H L E U m v K t g p D i I R R x k H Y Q R J R R K H D Y ",
"E E E Y V L Y m j C i v i i Y m l p E N r x H L Y ! ( ! K L V E Q Q E Y v Y T K Y Y K p H v Q j Y E [ [ H k J Y R E [ ! H U H T ",
"Y I Y B H B H K L Y p v p p K H ~ E ( I v B ! ( ( ( ( [ L V H R L Y Y T H x H Y Y E I v U L L H ( ( { / Q H ! Q ! [ [ ! Y D D I ",
"x ` ` L H Q H J E Y H x x r x H E ! ! Q Y Y E Y R ! Q Y H & W Q x / ! W Y W H H R Y Y & D x x U Q ! _ Q W H E E R ! Q Y J x & & ",
"H / ` ` Y Q Y x B B x Y T H Y B Y L Y L L L T Y J L L H H W L ( W ` ' x Y W Y B H B x Y E J Q [ | Q W _ W H R Y J J Y U x Q U & ",
"v Q ` Q ( ( Q Y ` Y Y R Y B Q H H R R R H V H V H H D H J Q R L H / W R ( ( Q J % H R R Y H E / Q Q Q ' [ J J H H H H Q U ' { _ ",
"E Y Y Y Y Q L Q K E E Y R Y B H B B & H Y g c Y v h x E E Y Y J Y W Y Y R R L B H R E Y R Y D J Q W W ) W W Y Y L / Y Q ( Q / Y ",
"L T Y Y Y E Y / Y ! Q L R R H Y E H & k H 5 f l j i % T Y T N x L T Y Y R R L % Y ! Q L R Y H R W W W ' Q D Y D Q ' / Q Q Q Y D ",
"E T Y Q L L Y L Y H B ` _ H J E E V L p u 3 f y r y f N v p f # p l B x L Y Y L J H H H J H J W W Q Q W ' ! ) ) ' Y Y Y Y U x % ",
"U H H Y H L R Y Y E H _ / x H L H H C i j 2 p i t 4 @ i t p y 3 y @ x H H Y E Y Y W x D & & H J J W ' / ' ' ) W D Y H x H H H x ",
"Y E E W H L Q Y Q Y H L T H J H k I N t u 2 p 2 3 + 1 3 7 1 2 p z Y Q R B Y E Y E Y D % & H J H & U W W U W Y Y H D & H Q W Q J "
};
