/* XPM */
static char *c722963672044f5cf8666873924892e3cAuzBsoYzw3GtmhK[] = {
/* columns rows colors chars-per-pixel */
"64 64 106 2 ",
"   c #2F3D22",
".  c #323E23",
"X  c #413D27",
"o  c #44362A",
"O  c #4C362E",
"+  c #443D2A",
"@  c #4A3C2E",
"#  c #513D2F",
"$  c #4E3D31",
"%  c #553F34",
"&  c #583F37",
"*  c #583F38",
"=  c #32401F",
"-  c #354323",
";  c #3A4525",
":  c #374823",
">  c #3C4C25",
",  c #3C432A",
"<  c #3E4C28",
"1  c #3C5025",
"2  c #3E5029",
"3  c #414326",
"4  c #404C27",
"5  c #44442B",
"6  c #4A432E",
"7  c #434C2A",
"8  c #494B2E",
"9  c #44502B",
"0  c #49512E",
"q  c #474631",
"w  c #4C4432",
"e  c #4C4B31",
"r  c #4E4E3B",
"t  c #544335",
"y  c #594237",
"u  c #524B35",
"i  c #564439",
"p  c #5C453B",
"a  c #564C39",
"s  c #5D4A3D",
"d  c #4B5131",
"f  c #525236",
"g  c #55533A",
"h  c #5B533D",
"j  c #60473D",
"k  c #614A3F",
"l  c #61543F",
"z  c #5E4A40",
"x  c #5E5142",
"c  c #5F5941",
"v  c #634D43",
"b  c #684F46",
"n  c #655145",
"m  c #675746",
"M  c #685245",
"N  c #685046",
"B  c #695447",
"V  c #645943",
"C  c #655845",
"Z  c #665B47",
"A  c #6B5A47",
"S  c #645348",
"D  c #675248",
"F  c #675249",
"G  c #685348",
"H  c #6B554A",
"J  c #6A574A",
"K  c #6C5449",
"L  c #6C554B",
"P  c #6C564B",
"I  c #6D574C",
"U  c #6F564C",
"Y  c #6D594C",
"T  c #6F594C",
"R  c #6F584E",
"E  c #70574C",
"W  c #72574E",
"Q  c #70584C",
"!  c #73584F",
"~  c #705B4F",
"^  c #725A4E",
"/  c #735B4F",
"(  c #6E5A50",
")  c #715A51",
"_  c #755C50",
"`  c #775E52",
"'  c #725F55",
"]  c #795E53",
"[  c #6D614F",
"{  c #6B6051",
"}  c #726055",
"|  c #756156",
" . c #7A6055",
".. c #7A6056",
"X. c #7D6257",
"o. c #756258",
"O. c #766259",
"+. c #7D6258",
"@. c #7A655B",
"#. c #7A675E",
"$. c #7D695E",
"%. c #7E6A61",
"&. c #816D63",
"*. c #826D63",
"=. c #857166",
"-. c #867369",
/* pixels */
"W ! U P s s R R R M i H v ! ! ! s v 7 ; 7 - > - > ; - - - ; 7 e B ! P P p j P ! ! M y % j ! ! ! p v v M ! ! P H R R j M ! ! ! P ",
"U ! v a n e h H U i i j U ! ! M v R ; - ; : - . - .   . . - ; , > h k v ! j v P P p p j U ! ! M v R P G G W Z h ! U g 8 f Z R P ",
"s u u m d d < w n M ` X.+...! B R R ; . . . .         - - ; ; 8 s t i ` ! U G p v n ! X.X...m 8 a H s w e 8 9 > 5 M P 4 0 h R P ",
"v u 7 : 4 > : , R M R ! ! ! ! p H j 5 . , 5 a B s r . . - ; u s i } &.) P ! x 5 7 > 4 f n P d i t s 5 - . - : -   w B e 4 u V P ",
"z $ o 6 > - - a ! ! ! R U M M H i i M ! ` ` ` ! P | c ; - > t v z @.o.' D ,   - ; f V } Z M D n 4 > > > > - . - . > u e > > M M ",
"z U f ; ; : g $.! ! U U M p v U H R G ) ! ! ! ! P H H 8 3 ; 4 a s ' ' D r . ; 4 8 a a a v p y 8 7 t 7 7 7 5 ; > - > > > . , u v ",
"G H e e 7 > ; , a a B P p G G P b v s M G G G H P ] H 7 > t h a M ! ! ! ' w - : ; : d H p G v 8 s @ 4 7 h 5 < < 7 > > , 3 5 n n ",
"H M v n a 4 - ; ; > 3 v P ! ! ! b p P ` X.X.X.X.X.] M e > 7 H ! H H ! ! ! ` s X o o 6 f B ! U V M % g V ] e 0 u e 7 w 4 > z V R ",
"! G M M H 4 4 > > > $ U ! ! ! ! R p R ..` ! ! ! ! ! R p v l n U ! H G H U H n 7 > 5 @ D R ! ! ! U p R ..P 7 g u d u e t u m ! ! ",
"! U ) ` R u u > > @ ' R P ! P j H H P U P ! ! ! P P b v ` ` ! ! ! P ' ....` R M s % p ` ` ! P s j p H U s f ! R o.R u v ! ` ! ! ",
"! P ] X.] R d 8 i v | ' v b b v v i s p v U P M b p v ! X.X.` ! ! ....X.X...! R ` b @.@.#.( b v v v o.o.M P R %.-.$.H ` X.X.] ..",
"! P ! ! ! P s D R b ( ( %.' p p M P p % y b v v t 7 e B ! ! ! ! ! R ! ! ! ! ! ! ! b ( ' ' D U p M ! o.@.) b v ' @.v o.' ! ) ! ! ",
"M R ! ! ! ! ! ! ! M v o.#.| M ) ....P p s v t 8 , , ; R R H H ' | R ! ! ! ! ! ! ! M b b z ' U ` ....H v v b ' ' &.&.M b G P H P ",
"B ! ! ! ! ! U P P M D z ( ` ` ! ! ! G ! R t e 7 3 : ; z ! U ! ) H R ! ! ! ! ` ' P M b ` H ` ` ! ! ! G ! P i | %.-.-.| v R U U ! ",
"R M H U ! U b v G &.-.o.| X.` ! ! ! U ! R a w 3 ; - 5 H ! ! ! ! U | P U R P G ' M v ( H ..X.` ! ! ! U ! ! U v b o.` v H ! R ! ! ",
"P v v b b v v z b } ' ' ! ! ! P ! W ` n h f 8 ; - . , a H ! ! ! P H M b b b M z p % ) &.&.! ! U ! R ' H U G p ` D p v v U ( ! ! ",
"H b b v o.&.P o.R ! R G P ! W M P P P s 3 3 1 > > , n w q M ! ! H M v e , u G @.! G ( o.@.! ! G P P P v p p G ) ) ..X.b v H ! ! ",
"v i p G @.@.H R ! ! b p U G U ! ! j p s M e 4 > ; ; - - . , s M s 5 . - - 6 M P R R D ' ) M P ! ! j p v H v P M s ! ! P o.-.| G ",
"j U ] ` | ` s H G H b p v v v b v v P R h 8 8 > > - : > : - , ; < > - 7 < % s P H H b p v s v b v v P ! ! M H U v s v ! o.o.' b ",
"! ) X...] b p G v p j P ! ! G p ` v U H v a > > < > > > > > @ e u 7 u e u s p M j p j H ! R G p % s U W G U U b p v p v H ( ' ) ",
"! ! ! ! P j v G R U P ! ! ! ! G v v j p i e < w > < > 8 > 1 t n b e n e M s v M R U P ! ! ! ! n - ; > 7 e a p G P G U ! v % p R ",
"! ! ! ! M M ! ! ! ! G H H H P v P ! U y % 8 t h > 7 7 h w > s D U u R v M G ! ! ! ! G U H G H 9 ; > 4 X X u H ! ! G ! ! v v j P ",
"! ! ! P v H ! ! U U G R H ! ! v P ! ` ` v $ z h t g f ..s 8 z ! ! M ! P v G ! ! U U G U H R R 8 : ; 7 7 > 7 8 f P ` X.+.b M v ! ",
"G P P v z s v P G ! ! v M ! M b ..X.X.X.! p ` ` ! ` m +.M i H ` | &.$.v s s v P H R ! v M g 9 > - : > 7 8 6 u n ` X.X.X.M j s U ",
"y y p % M ! v b ! U U i p i i b ` ] ] ` M v ! U P ` R P b D $.&.&.=.} ' U R v b ! U U i p u > - - ; : > > > 7 f R ` ` P b p % p ",
"% % % p U ! U j j j p G R M U p P M H P b j U G M G P v s R ` ' ' | | o.R ! U s v s p H ! b B , > > > > > 4 t p v G P v s U G * ",
"j p y W ..X.! M % v P ! U j ! s v U U U v v b v b b s M G ! U v v D v ! ..X.! M @.H H R R v ! k 4 u 8 > > 7 8 s b b s M G ! U b ",
"! U P P H h d 8 8 H ! P U G v i e j % v P U P U v i v R ! P P b ! U U P P W B s v U ! P U G j j p w t w 8 e a M v p R ! R P P b ",
"M U P P R P n t 8 7 H G R U v P 8 e % 5 M s v v @.&.o.! ! ! b p M U P P U W M % P ..` G U U j W ! v % p H y v v R &.$.! ! ! b p ",
"y v M s M v s u 4 - . s v v M ! a 7 n > a P H s &.&.' ' H M P | H ' M s M H U G M v j M v v M ! ! v G G ) P P v &.=.=.R G M p % ",
"y p j j s f 0 8 8 4 - . % % v M i 9 P > g ! f U o.' | ' b b v v v M j u j P U H U U p p M R v M b v ! P H ! ! ! $.@.` p v b v i ",
"P ! ! R s h u 7 > : -   6 v v s $ 7 n 1 s h e H H M b H ! ! ! P P ! R 0 t H P g M ! $.&.) R M v R ! W W G G H H G v $.H ! ! ! P ",
"! ) P P i t u e e 7 :   w ) k g 6 7 8 0 V 7 M U R R v M ! ! ! U P V s > @ a x f z G ' @.P ! ! ! s v v M ! ! U P P R M M ! ! ! U ",
"P ! v v R v s e < ; 5 w R ) s < , > > e < h f h H P s P U ! ! P g a e > t 8 8 e s i s M R ! ! M v R U H P U ! R ! P v P U ! ! U ",
"M v p ) ! U G t s n ` ..X.` u > > > ; 7 g 8 i v o.M P s H ! ! P 4 + , > e e > + a d h f ! ] R i j ! ! U P G v p i M P j P ! ! U ",
"v z M P P ! U p U M U ! ! v 8 , - - > 5 4 t v H v s M p H ! ! h : 5 ; 4 < 7 > + 7 e < u u d 7 t % v p p p p v H v j ) G U ! ! P ",
"v z t p G G v b ! ! ! U m t < > . - - 8 h e ! ! P p j p U P P 8 - 8 < > - : 5 : ; ; > ; ; 5 w s i p M ! ` ] ! ! P M &.=.=.H G M ",
"z H U v p p z @.` ! U v u 4 > - . - ; > 8 M ! R P G U o.=.U P a u P R a w ; - - - - - 7 w $ t s t p M ! ! ! ! ! P H ' | ( D v j ",
"G ! ! ! U v -.-.$.) G P @ e 8 > - > 5 s M G G H P ` P @.' H R D D ! ! ! U ; : .   . - ; ; e M P p p p D G P h M M ..P ` ' | R G ",
"H H ! ! ! D =.@.( o.D s h f 7 > > , > h X.X.X.....] G v G R ! R H P ) ! R 7 > - - ; ; > u e a R b p U ` ..X.V c M ] P &.' U ! ! ",
"! G G H U P o.} ' ' z s s a 8 > 7 t 8 d ] ! ! ! ! ! ! p b U ! ! ! ' ' $.U n u > - : > u u M B P ! p R ..` ! l 8 e M U U R R ! ! ",
"! P ) ] ..` ! G v %.&.v s v u 4 i p h d P ! ! ! P H b v ` ` ! ! ! P ! ....` ! M a - , % D U P s s p P P n P g 8 7 t v u ! ` ! ! ",
"! U ] X.X.] ! U G P o.' ( s a v v p u w v P G v b P M ! X.X.` ! ! P ] X.X.] ! R M a > # & v M v v p z y 8 s 9 q > + a V ! X.` ! ",
"! P ! ! ! ! ! ! R v U @.b % i p b P i % t b v v @.&.o.R ! ) ! ! ! P ! ! ! ! ! ! | ' a 5 5 8 i p M P p t > 5 > 4 > 3 4 y R ! ! ! ",
"M U ! ! ! ! ! ! ! M v v % p v ! ....M p p v s H | ' ' G D ) ! R $.! ! ! ! ! ! ! ! G b a , 3 8 h ` ..G i 7 - : ; > , X s M H P P ",
"G ! ! ! ! ! m h h s M p b ` ` ! ! ! G ! U p b P ( %.G b R ` ) ! R ! ! ! ! ! P P P x b e - 7 8 u P ! G ! M . . > > > X s R U R ! ",
"P b G U U U g e e > < % ` X.` ! ! ! P ! ! U v U @.%.( G ! ! ! ! P M M m R P v v a e b 5 - - 7 e g H U ! R a w ; 3 @ t H ! ! ! ! ",
"! &.$.| n u 8 ; ; ; : q H ! ! U ! W ! P U G p ( ' H v v P ! ! ! P v w 7 u v z 7 > < w ,   - ; e h H ` P U n u > 4 5 s v P ! ! ! ",
"` $.` M p e > > > > - g x R W G m P P v i s H v M ....M v M ! ! H u - - - w ; = - .     - > > > 7 8 h v p s H s v ] ..b G | ! ! ",
"M P H ) n > 4 7 > : . R { n P R h s i s P v P M j ! ! W M G o.H s 3 5 > 7 ; : 5 - ; - - : ; 1 7 u i i v H v P M s ) ! U o.| v M ",
"o.R ` A h 3 4 7 > > - , 7 < [ h 8 - ; 7 8 h H U b s G ! v $.=.R v a V e f 6 4 a > > > ; ; > > 5 7 k P ! ! M H R v j v $.-.%.M y ",
"! ) X.! h u 5 7 > > - > 1 1 > > > > 9 n n 0 h M p G ' v M @.( ' R ! B ! f z t n > > 7 > > 8 7 > O i P W H R R M s v p o.$.( | R ",
"! ! ! ! n e > 7 8 > 4 > 7 > u 1 > 4 9 < t y w G U H P ! v ' } ' R ! R ! a s v v < e a > 7 7 u > y s s p i p p G U H U ` ' ' R R ",
"! ! ! ! M s s a > 8 7 8 7 7 v 8 8 4 n 2 5 b R ) ! H ! ! v v j H ! ! ! ! v M ! H u s v > t 8 z 5 B ! R p t b ! ! ! G ) ) v v v H ",
"! ! ! P v G R f i k < s 7 8 P u u 8 ! c 5 p b M P ` X.X.v G v ! ! ! ! P v H R B H H M e n a ! i P ) &.&.b y b P U ` X.X.b G v ! ",
"H P P j z p v M M P e s 8 8 b b R R X.A a j ` ....X.X.X.M s v U G U U R v p v H H R R s M H M b ....=.| ` v ` ..X.X.X.X.M s s P ",
"s o.$.M M ! v b ! P z p i 5 t b ) ] ` ` H P ! U U ` ` P b p ( ` s | | ' H R v b ! U U i s i i M ` ] o.' ' v ! ! W ` ` P b p y p ",
"v | $.@.U ! U s j j p G ! M U p P M H H M M U H M G P v s U G o.( @.$.i P ! P p j j p P ! M ' &.=.| R o.) v U G M G R D s R G y ",
"s ( @.` ....) H o.P P ! R s ! v v U U U v k v v v z p M G ! P G v o.P W X.X.! b % v P ! U j ' | } ' ' %.&.b b v b b b ) G $.=.o.",
"! R U H P W G ) M ! ! P U P v v j j y v H d a H s e i ! ! U P b R U P P P W M s j W ! P U G v H ' ( P o.' R P P D | P ! | ' o.P ",
"M R P U U U P | U ] ` M W W v U ! v % t v > w u t 7 t ! R ! s p M U P P ! U M t P ] ` G R U v U ! ) ( o.' s R j ' @.@.! ' ) U z ",
") ! H ' G H U G G v s $.o.v M ! ! v M e w > w 7 5 4 % h s 8 $ @ 8 u k p G P U G M v v M b v M ! ! ' ' ' @.o.| @.o.U H U G G p % ",
"M M v U v B U P U U v o.} i v M v v n 4 w : e 7 4 3 + 8 4 8 3 > 5 @ i v v P U P U R p s t % v M v ) @.| $.%.o.! n P v i v b v p ",
"U ! ! ! s H ! U ! U j G R b b v y G g 4 6 : 8 ; > + ; > > ; ; 8 i H ! ! j H ! U ! U s % p v M v y P ) ! H P P H M p y v ! ! ! P "
};
