/* XPM */
static char *result[] = {
/* columns rows colors chars-per-pixel */
"64 64 228 2 ",
"   c #180E0D",
".  c #3B1C37",
"X  c #292424",
"o  c #2B2D26",
"O  c #2C2B2B",
"+  c #372B2B",
"@  c #2F3C22",
"#  c #313E23",
"$  c #35322F",
"%  c #343433",
"&  c #383534",
"*  c #373934",
"=  c #3B3A36",
"-  c #3C3B3A",
";  c #5B0B1A",
":  c #481918",
">  c #581617",
",  c #690B0D",
"<  c #77080A",
"1  c #660B18",
"2  c #760B15",
"3  c #681515",
"4  c #791B1B",
"5  c #77211F",
"6  c #520E25",
"7  c #471F20",
"8  c #4D1129",
"9  c #50112A",
"0  c #471837",
"q  c #6E1630",
"w  c #462626",
"e  c #592727",
"r  c #443A29",
"t  c #443D29",
"y  c #4A3C2E",
"u  c #513D2F",
"i  c #4E3C33",
"p  c #463C3A",
"a  c #553E34",
"s  c #583F38",
"d  c #6A2525",
"f  c #722926",
"g  c #69312D",
"h  c #693835",
"j  c #713733",
"k  c #32401F",
"l  c #354323",
"z  c #3A4625",
"x  c #374923",
"c  c #3C4B25",
"v  c #3C442A",
"b  c #3E4C28",
"n  c #3D5026",
"m  c #3D4137",
"M  c #414326",
"N  c #404B27",
"B  c #43442B",
"V  c #4A432E",
"C  c #434C2B",
"Z  c #494C2E",
"A  c #44512D",
"S  c #4B4532",
"D  c #4C4B31",
"F  c #4E4E3B",
"G  c #534335",
"H  c #584237",
"J  c #524C35",
"K  c #574239",
"L  c #5C453B",
"P  c #554C3A",
"I  c #5D4A3D",
"U  c #4B5132",
"Y  c #4A5639",
"T  c #525236",
"R  c #55533A",
"E  c #5B533D",
"W  c #555D3F",
"Q  c #60473D",
"!  c #614A3F",
"~  c #76443D",
"^  c #61543F",
"/  c #1F255E",
"(  c #362349",
")  c #352A4D",
"_  c #2A275B",
"`  c #192A68",
"'  c #142C71",
"]  c #1B3577",
"[  c #252A67",
"{  c #2A316C",
"}  c #373578",
"|  c #661F44",
" . c #5A204D",
".. c #4C2255",
"X. c #5C2755",
"o. c #682046",
"O. c #743F40",
"+. c #49316C",
"@. c #4C4442",
"#. c #484745",
"$. c #5E4B41",
"%. c #564B48",
"&. c #5F5143",
"*. c #5D5A42",
"=. c #53514E",
"-. c #58574B",
";. c #5B5853",
":. c #5D5B5A",
">. c #634D43",
",. c #6A4E47",
"<. c #794643",
"1. c #655245",
"2. c #695247",
"3. c #655B47",
"4. c #665249",
"5. c #6C554A",
"6. c #6E594D",
"7. c #71574D",
"8. c #71594E",
"9. c #625A55",
"0. c #6E5A52",
"q. c #675D5B",
"w. c #785551",
"e. c #735C52",
"r. c #795E53",
"t. c #596548",
"y. c #64654D",
"u. c #676658",
"i. c #6B625D",
"p. c #756156",
"a. c #7B6256",
"s. c #756259",
"d. c #7A655C",
"f. c #736A5D",
"g. c #7C695E",
"h. c #5C666C",
"j. c #656463",
"k. c #6B6563",
"l. c #6A6968",
"z. c #6D6A69",
"x. c #736762",
"c. c #736A65",
"v. c #7C6B63",
"b. c #726D6C",
"n. c #7A776A",
"m. c #7C726D",
"M. c #6B717C",
"N. c #787575",
"B. c #840405",
"V. c #8C0203",
"C. c #86090A",
"Z. c #940202",
"A. c #990000",
"S. c #920B0B",
"D. c #8A1A1A",
"F. c #911312",
"G. c #8C2424",
"H. c #8C2B29",
"J. c #8B3937",
"K. c #8A433F",
"L. c #8A4946",
"P. c #835C57",
"I. c #8F5856",
"U. c #84625D",
"Y. c #90625F",
"T. c #826D64",
"R. c #8A6B65",
"E. c #926664",
"W. c #847166",
"Q. c #85736A",
"!. c #89746D",
"~. c #837571",
"^. c #847A74",
"/. c #8A7971",
"(. c #837D7A",
"). c #927671",
"_. c #7E8374",
"`. c #86827B",
"'. c #92847E",
"]. c #173887",
"[. c #12398E",
"{. c #123E95",
"}. c #173F95",
"|. c #223883",
" X c #1A4597",
".X c #10429D",
"XX c #29499C",
"oX c #354F91",
"OX c #0F47A4",
"+X c #0F49A7",
"@X c #0E4BAB",
"#X c #154BA5",
"$X c #195AAC",
"%X c #0D4FB2",
"&X c #0D51B3",
"*X c #0C54B9",
"=X c #1457B9",
"-X c #2961A9",
";X c #3572B8",
":X c #4E5E83",
">X c #516C90",
",X c #6C7588",
"<X c #6C768B",
"1X c #4471A5",
"2X c #0957C0",
"3X c #0959C2",
"4X c #095CC8",
"5X c #125CC4",
"6X c #0761CF",
"7X c #0A61CA",
"8X c #0766D5",
"9X c #0A69D6",
"0X c #056ADD",
"qX c #1772D2",
"wX c #2974C6",
"eX c #036FE4",
"rX c #0873E4",
"tX c #0374EB",
"yX c #888482",
"uX c #948A85",
"iX c #9A948D",
"pX c #9C9895",
"aX c #A2958E",
"sX c #A49996",
"dX c #A4A79D",
"fX c #8895A4",
"gX c #AEB0AA",
"hX c #B8BBB4",
/* pixels */
"7.8.6.5.I ! 6.8.e.1.L 5.>.8.8.8.L ! A v C l c k c z l x l x Z D 2.8.6.5.Q ! 7.8.8.2.H G ! 8.8.7.Q Q ! 5.7.6.5.2.8.8.! 1.8.8.8.6.",
"7.8.>.P 1.U E 5.6.L L ! 5.8.8.2.>.6.x x z x l # l # # # # l z l c ^ ! >.8.Q ! 5.6.H L Q 7.8.7.5.^ 8.5.5.2.6.3.E 8.5.R C T 2.6.6.",
"E J G 3.D U b D >.1.e.a.a.a.8.2.6.0.z # # k # # @ # @ # x z x U I G L e.7.7.5.H 1.1.8.a.P.a.^ Z P 5.I S D C A c M 4.6.B A ^ 6.7.",
">.J C x C c x v 5.2.5.8.8.8.8.L 5.$.B l * B P 2.I F # # l c J I P e.v.e.5.7.^ C N n N T ^ 6.T J G E M l # l x l @ D 2.D N T ^ 2.",
"$.a r V c l l P 6.e.8.8.8.2.2.5.L L 1.8.8.r.8.8.5.p.*.z l c G >.$.v.s.e.1.B @ l c T 3.p.3.4.4.1.C c n c n l l # k c J D N N 1.1.",
"$.5.J z l x R g.8.7.6.5.2.L >.6.5.8.2.8.8.8.8.6.5.5.5.Z B x C L I 0.e.4.P # v b D P L P >.L P B N S N N C M x c l c c c M N J Q ",
"4.5.D D C c z v P P 2.7.L 2.2.5.>.! L >.5.5.2.5.5.r.5.C c K E P 1.e.6.8.r.F x z l z A 5.K 2.$.Z L t C N E Z c b C c c N M M ^ 1.",
"2.2.>.^ P C l z c c M ! 5.8.8.8.2.H 8.r.a.a.U.a.a.r.5.Z c C 2.8.5.2.e.7.6.r.>.# r r V T 2.8.6.>.2.a R 1.r.D Z J U C S b C ^ 1.6.",
"8.2.2.1.2.C b c c c i 6.8.8.8.8.8.L 8.a.r.8.8.8.8.8.8.I >.^ 1.6.0.2.2.2.7.5.>.c N V y ,.8.8.8.7.6.L 6.a.5.b R G U J Z G J 3.8.8.",
"8.5.e.a.6.J J c c y 0.0.5.8.5.L 5.2.5.6.5.8.8.8.7.7.>.>.r.r.6.8.8.6.e.r.a.8.6.1.I a K e.e.8.5.>.! L 5.6.I R 8.0.p.6.J ^ 8.8.8.8.",
"8.5.a.a.r.6.U Z L ! p.e.>.>.1.! >.K ! L ! 7.5.>.! L >.8.a.a.8.8.8.a.s.U.a.a.8.6.r.>.s.d.v.8.>.>.! >.d.d.3.5.0.v.W.v.2.p.a.U.r.a.",
"8.5.8.8.8.5.$.,.6.1.6.0.v.e.L Q 2.5.L H H >.>.>.G C D 2.8.8.8.8.8.8.8.8.7.8.8.8.8.>.0.r.q.,.7.$.1.8.d.d.e.>.4.e.d.$.s.p.8.8.8.8.",
"2.6.8.8.8.8.e.8.0.1.>.s.d.r.4.e.a.a.2.L I >.G Z M M c 6.6.5.2.r.p.6.8.8.8.8.6.8.e.>.4.>.>.e.7.e.a.a.5.$.>.>.e.e.v.v.4.1.5.6.2.5.",
"2.8.8.8.7.w.5.5.5.1.4.$.8.r.e.6.8.7.2.8.7.G D C M x x 1.8.6.8.8.6.8.8.8.8.8.e.e.5.>.4.r.,.e.e.8.a.8.2.e.7.s r.v.^.0.s.4.a.6.8.8.",
"6.1.5.6.0.5.4.>.2.T.W.s.r.U.e.7.8.7.6.6.6.E S M x l B 2.8.8.8.8.6.p.5.6.7.6.2.r.4.>.8.4.r.d.r.~.~./.r.e.0.0.>.e.L.g 6.v.c.W.8.8.",
"5.>.4.>.,.>.>.$.4.e.p.e.6.7.7.7.8.6.w.1.E T D x l v v P 6.r.8.8.6.5.1.1.1.>.2.>.L K e.T.T.e.r.iXz.b.^.e.w.5.5.P.D.e e.;.b./.8.8.",
"5.>.>.>.s.T.0.r.6.7.6.4.6.8.7.,.5.5.2.$.M N c n n b -.F S 4.8.8.5.3.&.F v J 2.g.e.4.0.s.r.e.e.T.uXj.l.v.,.4.U.G.S.3 %.b.^.e.8.8.",
">.L L 2.d.d.0.0.7.e.,.K 7.5.7.8.7.Q L >.2.D c A n t.Y v Y ;.c.v.c.u.u.t.t.9.d.a.e.e.6.s.e.2.0.e.T.uXl.:.v.U.H.V.2 w b.(.!.!.d.4.",
"I 5.r.r.s.r.$.4.2.5.,.s >.>.>.,.5.0.s.r.3.Y T t._.z.pXdXhXhXhXgXgXdXpXuX`.N.b.k.;.-.%.L $.$.>.T.T.v.pXk.%.d , 3 7 p v.r.d.d.e.>.",
"e.e.a.r.r.4.4.T./.'.uXiXaXaXsXiXsXsXpXyX`.b.u.-.- X - :.j.j.j.j.j.j.l.l.b.N.N.N.(.^.x.0.e.0.5.d.uXsXaX<.7 i %.w > h 7.>.6.0.e.e.",
"8.8.7.8.s.c.b.z.z.l.q.:.:.:.:.:.u.j.k.u.j.:.t.u.&   O ;.Y Y %.0.0.-.p.t.s.0.i.s.v.x.e.e.e.6.e./.iXE.H.F.; i.yXp 2 h p.e.>.a K 7.",
"8.8.8.8.0.c.N.(.yXyXyX(.m.v.m.c.~.uXuX`.0.*.I i.F   p 3.J C ! 5.e.P e.5.5.0.8.e.8.w.7.e.w.v.!.P.H.F.Z.Z.> @.;.+ 4 ,.p.e.>.>.! 5.",
"8.8.7.5.>.0.e.d.v.v.s.s.p.s.g.!.pXfX<Xh.$.s h h :   : j h g g j j j j g d f f f f f f 4 4 f 5 F.Z.A.V.3 7 3 3 > w i.).U.,.2.>.8.",
"5.7.5.$.$.L >.6.6.e.e.1.6.m.,X1XwXqXqX=X|.( d 2 < < B.V.S.S.S.S.S.S.Z.Z.Z.Z.S.S.S.V.Z.Z.Z.Z.Z.Z.A.C.> 7 3 C.C.D.e @.(./.7.>.L 5.",
"s H Q a 2.8.>.,.8.7.8.4.N.1XqXrXtXtXtXtXeX4X X_ 8 < V.Z.A.A.A.A.A.A.A.A.A.A.A.A.A.A.A.A.A.A.A.A.B.e y a <.w.R.W.!.m.q.N.v.$.K s ",
"a a s H 6.8.5.! ! >.0.,X;X9XrXtXtXtXtXtXtXeX0X8X=X] 9 C.B.Z.Z.A.A.A.A.A.A.A.A.A.A.A.A.A.A.A.S.4 e 9.N.n.y.*.$.4.5.e.^.:.b.T.2.s ",
"Q H H 7.a.a.e.4.K 0.,X;X9XeXeXeXeXeXtXtXeXeXeXeX9X5XX.o.) 9 2 C.Z.A.A.A.A.A.A.A.A.A.A.A.F.G.Y.~.m.n.*.A U Z Z E 4.>.0.^.c.~.8.>.",
"7.7.7.5.2.E U A R M.;X8X0X0X0X0XeX0X0X0X0X0XeX0X9XoXo.XX4X+X] 0 1 V.A.A.A.A.A.A.A.A.S.D.I.).v.r.e.R G G Z D P >.>.I 0.s.x.e.6.,.",
"2.7.5.5.5.7.&.P j.;X7X8X8X8X8X8X8X8X8X8X8X8X8X8X=XX.+.5X9X7X7X*X] ; A.A.A.A.A.A.Z.S.H.P.T.e.>.e.e.>.s K 5.K >.! 8.T.g.8.e.7.,.L ",
"H >.2.! 1.>.*.u.>X=X6X6X6X6X6X6X8X4X6X6X6X6X4X5X+.o.XX7X6X6X6X4X X1 A.A.A.A.A.A.S.J.T.e.>.>.2.8.e.>.2.,.e.5.5.>.W.W.W.8.5.,.K s ",
"H Q ! ! I U W h.-X3X7X7X7X4X4X4X4X4X4X4X4X4X4X#Xo.+.3X7X4X4X4X*X{ C.A.A.A.A.A.F.L.R.>.Q 2.e.>.,.>.>.w.6.5.8.8.8.g.d.p.L >.>.>.L ",
"5.8.7.8.! 1.u.>X&X*X*X3X*X3X3X3X2X2X2X2X3X2X=X+.o.XX3X3X3X3X*X#X0 A.A.A.A.Z.S.L.v.r.T.v.e.6.>.>.e.8.7.6.2.2.5.5.5.>.g.5.8.8.8.7.",
"7.e.7.7.$.>.h.$X*X*X*X*X*X*X*X*X=X2X=X2X*X5X}.| +.%X*X*X*X*X&X|.< A.A.A.A.S.K.g.1.3.e.d.5.8.8.6.L ! ! 2.7.5.7.5.5.8.1.2.8.8.8.6.",
"5.8.$.>.7.w.>X+X&X%X%X&X%X%X%X%X%X%X@X%X%XXXX. .XX%X%X%X%X%XOX) V.A.A.A.S.K.f.R I L I 1.6.8.8.2.1.6.6.5.5.7.8.8.8.5.! 5.6.8.8.7.",
">.>.$.w.e.l.oX@X@X@X@X@X@X@X@X@X+X@X@X@X+X|.q +.+X@X@X@X@X@X].6 A.A.A.S.J.v.Y M P D 1.T 8.a.2.J Q 8.6.5.7.5.>.L H 2.5.! 5.8.8.6.",
">.$.,.5.0.,X}.OXOXOXOXOXOXOXOX+XOX+X#X.X}.o.| }.OXOXOXOXOX.X[ < Z.A.S.H.g.t.N B A D c T J U A G a >.L H L L >.5.! ! 8.5.6.7.e.4.",
"$.$.s $.q.:X{..X.XOX{.OX{..XOX{..X.X.X.X+.q } .X{.OX.X.X{.[.. V.A.S.H.d.Y c C x x c M x c B G ! L L 2.e.e.r.8.8.5.1.T.W.T.6.2.>.",
"$.0.7.>.;.|.{.{.{.{.{.{.{.{.{.{.{.{.{.|.q  .].{.{.{.{.[.].` 1 Z.A.G.R.f.D x l l l l l C S i K Q a L >.e.7.7.7.7.5.2.p.p.e.4.$.>.",
"4.e.7.e.:.` ].[.[.[.[.[.[.[.[.[.[.[.[...q _ ].' [ [ _ ( 0 6 V.Z.G.E./.8.0.z x @ @ # k z x Z 1.5.L L Q ,.5.2.E 3.1.a.2.p.e.r.6.2.",
"4.,.e.e.4.X ( / ` ' ' ' ' ' ' ` / [ _ 2 1 0 0 6 ; , < B.Z.A.Z.G.E./.e.e.6.C c l z x c z J J E 6.2.K 7.e.r.U.3.E 2.8.5.v.p.6.8.8.",
"8.4.4.7.e.j , ; ; 6 8 8 8 8 6 ; 1 1 < Z.V.V.V.A.A.A.A.A.A.Z.G.I./.r.e.g.7.^ J N z x M J J 1.2.7.8.! 6.a.8.8.^ Z Z 2.8.6.8.6.8.8.",
"8.7.e.r.U.r.4 Z.Z.Z.Z.V.V.Z.Z.Z.A.A.A.A.Z.Z.A.A.A.A.A.A.Z.H.Y.!.8.8.8.a.a.8.7.^ J l z a 4.6.5.Q L L 2.6.1.6.E Z C G ! R e.e.8.8.",
"8.7.e.d.P.v.w.5 Z.Z.Z.< V.Z.Z.A.A.A.A.A.Z.B.B.Z.A.A.A.S.J.E.!.8.8.5.a.a.U.r.8.7.2.J c u a >.1.>.>.H ! H A ! C V n r P ^ 8.U.8.8.",
"8.7.8.w.8.r.d.w.f B., : , V.A.A.A.A.A.A.B.> : B.A.Z.G.L.R.T.r.e.8.5.e.8.7.8.8.8.a.8.P V Z Z G L 2.5.L G n B c N c M B L 6.8.8.8.",
",.6.8.8.8.w.e.d.d.O.w X > V.A.A.Z.Z.A.A.B.7 + < D.L.U.v.6.e.r.8.d.8.8.8.8.8.8.8.8.2.4.P v t Z R r.a.5.H N x z c c M r E ^ 5.2.7.",
"2.6.8.8.8.8.3.*.y.c.%.% g 5 < < B.C.B.< 2 7 + <.U.~.s.2.6.r.e.8.8.8.7.5.7.8.5.5.5.&.4.S l c Z J 5.8.5.8.1.# k N n c r E 8.8.7.8.",
"7.2.p.p.6.8.I F U t.=.@.s.r.<.<.~ ~ ~ ~ <.s * 0.W.v.0.5.6.0.8.8.6.>.2.3.8.6.! 1.R U >.B k x C D T 2.5.8.7.J Z c M t J 2.8.8.7.8.",
"8./.m.b.Q.J Z x A -.#.=.d.e.r.e.e.8.p.5.0.;.* u.p.5.>.>.5.8.8.8.5.^ D Z J >.E C c c S B @ l z D E 5.e.5.7.2.J c N V Q ! 7.8.8.8.",
"p.x.m #.:.R A A A -.#.#.3.6.6.2.3.5.5.>.L k.- b.0.a.d.8.4.6.e.8.2.J x x l S v k # k # # l c n n C C E >.$.$.2.I >.r.a.,.2.a.8.8.",
"5.=.O O % * m =.t.#.* :.c.v.^./.n.Q.m.s.v.q.- :.i.i.q.=.@.@.@.%.1.M M c N x x B l x l k x c n C J L K >.2.>.5.2.L e.8.5.d.p.>.2.",
"d.x.O O O O O % * O O % * - S ) - = - * = % O % & & & % O O $ - 4.I 3.A J V C P c N N c x c n B C ^ 7.7.e.>.2.8.>.Q >.g.!.v.1.K ",
"8.x.l.- O O O o O O O O o o o o O O O O O O O O O O O O O O O - i.0.2.8.T I G ! c N C c c Z b C u G 5.7.5.6.6.1.Q >.L s.g.6.p.5.",
"7.r.d.v.x.=.- $ o o O o o o O o o o o o O O O $ % % $ p & @.=.q.g.8.6.8.J I >.1.n Z P N C C J n s L ! L L L L 2.6.2.5.a.p.p.5.6.",
"8.7.8.p.6.E L P b B v B b v L Z B N I c r $.>.4.4.>.3.2.$.$.$.6.e.6.8.8.1.2.8.5.J I ^ N D C $.B 5.7.8.L H >.8.7.8.5.8.8.1.! I 5.",
"8.8.8.5.>.5.6.R G 1.C I C Z 5.T J C 8.^ B K >.2.5.e.U.U.>.2.>.8.8.8.8.5.! 2.6.3.2.5.2.Z 1.I 8.G 5.8.T.T.1.K >.5.6.e.a.d.>.2.1.6.",
"5.5.7.! $.I $.1.1.5.D I A Z >.>.8.6.a.8.P Q r.a.r.a.a.a.2.! >.6.2.6.5.6.>.L >.5.5.8.8.L 1.5.2.>.a.a.W.p.r.>.e.r.U.r.a.U.2.I I 5.",
"! d.d.2.>.6.>.>.8.5.>.K L M K ,.8.r.r.8.5.5.8.7.5.r.e.6.,.s 0.r.I p.r.e.5.6.>.1.8.6.6.K Q L L 2.r.r.s.e.e.>.8.8.7.8.e.5.>.L s s ",
"1.s.v.d.6.e.6.$.! ! L 5.6.1.6.Q 5.,.5.5.2.2.7.5.>.,.5.>.I 0.2.r.0.d.v.L 5.0.5.Q ! Q L 5.7.2.e.T.Q.s.0.s.e.>.5.5.2.5.7.4.Q 6.2.s ",
"I 8.d.r.a.a.e.2.d.6.5.7.7.Q 6.>.>.7.7.7.>.! ! ! >.1.L 4.,.e.5.2.>.s.5.7.a.a.8.2.s >.5.7.6.Q e.s.e.e.e.v.v.4.,.! >.>.4.e.2.v.Q.d.",
"8.6.6.2.7.7.2.e.1.7.7.5.5.5.Q >.Q Q a 1.5.U P 5.I D L 8.7.5.5.,.8.6.6.4.7.7.2.Q Q 7.7.5.6.5.L 2.0.0.0.r.e.6.5.7.2.p.4.e.s.e.s.5.",
"2.6.2.6.6.6.6.r.6.r.e.2.7.7.>.7.8.1.a H >.c S J a Z G 0.5.6.E L 2.7.5.6.7.5.,.G 5.r.e.5.8.5.>.5.e.e.0.s.e.I 8.! e.d.d.6.e.e.6.L ",
"8.8.5.e.2.2.5.2.2.>.! g.d.>.,.7.8.>.,.Z G c S B M M i E I Z S u Z J ! L 5.5.5.5.2.>.>.>.>.>.2.8.0.e.e.e.U.s.p.s.d.0.4.6.2.2.K s ",
"4.4.$.6.>.,.6.5.7.6.>.d.p.L >.,.1.! 1.C V x D C C M t Z C Z M c B y L ! ! 5.7.5.5.6.L L H a >.,.>.e.v.e.x.v.d.e.4.4.>.L >.>.>.Q ",
"4.8.8.6.>.5.7.6.7.7.! 3.5.>.,.>.H 5.T N V x Z x c M x x c b x Z G 5.e.7.Q 5.7.5.8.7.! a L >.,.>.s 5.0.0.5.0.5.4.,.L s >.e.e.7.5."
};
