/* XPM */
static char *_961c4b852a242beb537dadd2dffd4f7hSedNv1Cy0heTZkg[] = {
/* columns rows colors chars-per-pixel */
"64 64 155 2 ",
"   c gray12",
".  c #20201F",
"X  c #242323",
"o  c #282626",
"O  c #252920",
"+  c #2A2826",
"@  c #2B2B2B",
"#  c #332E2C",
"$  c #2F3C22",
"%  c #2F302D",
"&  c #313E23",
"*  c #33332D",
"=  c #39312E",
"-  c #343A2D",
";  c #3D3F2F",
":  c #333333",
">  c #3A3532",
",  c #373A34",
"<  c #3B3B34",
"1  c #3B3B3B",
"2  c #44352D",
"3  c #4A3B2F",
"4  c #413631",
"5  c #433B36",
"6  c #4C3C34",
"7  c #443D3A",
"8  c #493E38",
"9  c #563E35",
"0  c #583F38",
"q  c #354323",
"w  c #3A4525",
"e  c #374824",
"r  c #3C4B25",
"t  c #3D432A",
"y  c #3E4C28",
"u  c #3B5024",
"i  c #414427",
"p  c #404E27",
"a  c #42442C",
"s  c #48442D",
"d  c #434B2B",
"f  c #494C2E",
"g  c #45512E",
"h  c #48512F",
"j  c #454634",
"k  c #4C4632",
"l  c #464931",
"z  c #4C4B31",
"x  c #45413E",
"c  c #4C413B",
"v  c #4D4B3A",
"b  c #534335",
"n  c #594137",
"m  c #524C35",
"M  c #54443B",
"N  c #5C453B",
"B  c #554C3A",
"V  c #5D4A3D",
"C  c #4B5131",
"Z  c #525136",
"A  c #51513A",
"S  c #5B533D",
"D  c #61493F",
"F  c #61513F",
"G  c #434343",
"H  c #4B4744",
"J  c #4E4946",
"K  c #4B4B4B",
"L  c #534641",
"P  c #544944",
"I  c #5D4A41",
"U  c #524D4A",
"Y  c #5D4E48",
"T  c #5E5342",
"R  c #5F5942",
"E  c #53514F",
"W  c #59504A",
"Q  c #545454",
"!  c #5D5450",
"~  c #5E5856",
"^  c #5B5B5B",
"/  c #634D43",
"(  c #684D44",
")  c #655145",
"_  c #675746",
"`  c #685245",
"'  c #695547",
"]  c #655845",
"[  c #6B5A47",
"{  c #645348",
"}  c #665249",
"|  c #685348",
" . c #6B554A",
".. c #6A574A",
"X. c #6C5449",
"o. c #6C564B",
"O. c #6F574C",
"+. c #6D594C",
"@. c #6F584C",
"#. c #6F584E",
"$. c #70574C",
"%. c #72574E",
"&. c #72584F",
"*. c #735B4F",
"=. c #635A56",
"-. c #6D5A51",
";. c #715A51",
":. c #735D52",
">. c #755C50",
",. c #775E52",
"<. c #725F55",
"1. c #795F53",
"2. c #606050",
"3. c #616B52",
"4. c #6A625E",
"5. c #726055",
"6. c #756156",
"7. c #7A6056",
"8. c #7D6257",
"9. c #756258",
"0. c #76635A",
"q. c #7D6258",
"w. c #7A655B",
"e. c #7A675E",
"r. c #7D695E",
"t. c #636363",
"y. c #6C6C6C",
"u. c #7E6B62",
"i. c #726F6D",
"p. c #73716F",
"a. c #747474",
"s. c #797472",
"d. c #7C7C7C",
"f. c #816D63",
"g. c #826D64",
"h. c #847166",
"j. c #867369",
"k. c #88746B",
"l. c #867976",
"z. c #848484",
"x. c #8D8980",
"c. c #8B8B8B",
"v. c #918984",
"b. c #949494",
"n. c #9D9997",
"m. c #9C9C9C",
"M. c #A4A4A4",
"N. c #ABABAB",
"B. c #AFB1AB",
"V. c #B3B3B3",
"C. c #BBBBBB",
"Z. c #C3C3C3",
"A. c #C8C7C7",
"S. c #CBCBCB",
"D. c #D0D0D0",
/* pixels */
"%.&.O.o.V V #.#.&.` N  ./ &.&.&.V / d w d q r q r w q q q r d z ' &.o.o.N D o.&.&.` n 9 D &.&.&.N / / ` &.&.o. .#.#.D ` &.&.&.o.",
"O.&./ B ) z S  .O.N N D O.&.&.` / #.r q w e q & q & $ & & q w w r S D / &.D / o.o.N N D O.&.&.` / #.o.| | %._ S &.O.A f Z ] &.o.",
"V m m _ C C y k / ` ,.8.q.7.&.' #.#.r & & & & $ $ $ $ q q r r f V b N ,.&.O.| N / ) &.8.8.7._ f B  .V k z f d r a ` o.p f S #.o.",
"/ m d e p r e t o.` O.&.&.&.#.N o.D a & t a B ' V v & & q r m V M 5.f.;.o.&.T a d r y A I P j 5 5 M t q & q e q $ z ` k p m ] o.",
"I 6 2 s r q q B &.&.&.#.O.` |  .N N ` &.,.,.,.&.o.6.R w q r b / I w.9.<.} a $ q r v x 1 1 1 H G : % * r r q & q & r m k r r ` ` ",
"I O.Z w w e A r.&.&.O.O.` N / O. .#.| ;.&.&.&.&.o. . .f i r p B V :.:.} B & r y < 1 # @ : : : : : @ @ - d a w r q r r r ; w m / ",
"|  .z z d r w t B B ' o.N | | o./ / V ` | | |  .o.1. .d r b V B ` #.&.&.1.z q : : @ @ @ @ X X X X @ X X > t y y d r r w i a ) ) ",
" .` / ) B p q r r r i / o.&.&.&./ N o.,.8.8.8.8.8.1.` z r d  .&. . .&.&.&.<.x @ @ X X X X X X X X @ X X @ * g m z d l y r I ] #.",
"&.| ` `  .p p r r r 6 O.&.&.&.&.#.N #.7.,.&.&.&.&.&.#.N / F ) O.&.| | | O.U : @ @ @ X X @ X X X X X @ @ @ @ v m C m z b m _ &.&.",
"&.O.;.,.#.m m r r 3 :.#.o.&.o.D  . .o.O.o.&.&.&.o.o./ / ,.,.&.&.&.o.;.,.-.G : @ : : X @ X X X X X X X @ @ o > #.9.#.m / &.,.&.&.",
"&.o.1.8.1.#.C f N / 6.<./ / / / / N V N / O.o./ / N / &.8.8.,.&.&.7.7.7.~ H 1 : : : @ : X X @ X . X X @ @ @ @ w.j.r. .,.8.8.1.7.",
"&.o.&.&.&.o.V | #./ -.-.u.<.N N ` o.N 9 n / / / b d k ' &.&.&.&.&.#.&.-.H 1 1 : : 1 : @ @ @ @ X X X @ X X @ X Y w./ 9.<.&.;.&.&.",
"` #.&.&.&.&.&.&.&.` / 9.r.6.` ;.7.7.o.N N / b f i i r #.#. . .,.6.#.&.=.x o @ : : G : @ % : : X X X @ @ @ X X 7 u.f.` / | o.o.o.",
"' &.&.&.&.&.O.o.o.` } I -.1.,.&.&.&.| &.O.b z d i e w I &.O.&.;. .&. .U H t.t.x 1 G 1 : : : @ X X X @ @ X X X = g.k.6./ #.o.O.&.",
"#.`  .O.&.O./ / | f.j.9.6.8.,.&.&.&.O.&.#.B k i r q a  .&.&.&.&.O.6.I G c.z.m.t.1 1 1 1 : @ @ @ @ @ : @ @ X X X -.1./  .&.#.&.&.",
"o./ / / / / / I / 5.<.<.&.&.&.o.&.%.,.) S Z f r q & t B o.&.&.&.O. .c t.N.C.M.d.G : @ @ @ @ : 1 : : : : @ X X X M N / /  .&.&.&.",
" ./ / / 9.g. .9.#.&.#.| o.&.%.` o.o.o.V i i u r r t ) k j ` &.&. .` W z.m.a.b.b.E 1 @ @ 1 : , K G 1 : : : X X X 8 7.8./ /  .&.&.",
"/ N N | w.w. .#.&.&./ N O.| O.&.&.D N V ` z p r r r q & & t V ` V 2.b.N.b.m.c.m.t.H : 1 G G K ^ G K G : : @ X X # %.&.o.w.j.6.| ",
"D O.1.,.6.1.V  .| o./ N / / / / / / o.#.S f f r r q e r e q w w 3.B.Z.Z.N.M.M.b.t.Q K H H y.d.t.H ^ ^ 1 @ @ X X o N / &.w.w.:./ ",
"&.;.8.7.1./ N | / N D o.&.&.| N ,./ O. ./ B r r y r r r q & B x.C.A.S.C.M.b.b.d.y.t.y.a.z.c.d.t.^ t.t.G X X X X X M N /  .-.:.;.",
"&.&.&.&.o.D / | #.O.o.&.&.&.&.| / / D N N z y k u d y l , K N.Z.A.S.S.V.b.M.N.y.a.z.b.m.m.b.t.y.y.t.t.G X X   X X 6 O.&./ 9 N #.",
"&.&.&.&.` ` &.&.&.&.| o. . .o./ o.&.O.n 9 f b B w t < , : M.Z.Z.S.D.A.C.Z.V.c.^ d.m.N.M.m.b.c.d.t.y.t.G X X     X 4 &.&./ / D o.",
"&.&.&.o./  .&.&.O.O.| #. .&.&./ o.&.,.;.M = # # @ @ @ @ @ z.C.A.S.S.C.Z.C.m.y.^ b.N.M.N.N.N.M.c.a.d.t.H @ X X X X = 1.8.( ` / &.",
"| o.o./ I V / o.| &.&./ ` &.` / 7.7.-.U 1 : : @ X X @ X @ ^ V.Z.Z.C.V.V.M.N.c.c.V.V.m.c.b.m.b.b.z.d.^ H : X X X X = ,.8.` D V O.",
"n n N 9 ` &./ / &.O.O.N N N N / -.~ U G 1 : : @ : @ X X X , N.Z.C.N.m.N.M.N.M.N.N.N.m.a.Q G 1 t.z.a.^ G : X X X X 5 &.o./ N 9 N ",
"9 9 9 N O.&.O.D D D N | #.`  .U K 1 : @ @ X @ @ @ @ @ X X @ z.V.M.c.c.m.m.M.M.M.M.m.b.z.d.Q : : y.y.H : : * * X : / o./ V O.| 0 ",
"D N n %.7.8.&.` 9 / o.&.O.V U G : @ @ @ @ X X X X X @ @ X @ K m.m.z.d.z.c.M.M.m.b.M.M.d.Q 1 @ : 1 Q 1 , < a f M M / V ` | &.O./ ",
"&.O.o.o. .S C f f  .&.o. .U G : : : % : @ @ X X X X X @ @ o @ z.c.a.a.a.d.b.b.a.c.b.c.a.t.t.d.z.Q G < c z z B ` / N #.&.#.o.o./ ",
"` O.o.o.#.o.) b f d  .| Y G : : : : : @ @ @ @ @ X X X X @ @ X K d.t.t.t.d.a.t.z.y.^ Q H K z.N.N.s.I 9 N  .n / / #.f.r.&.&.&./ N ",
"n / ` V ` / V m p q q B G 1 : : : : : @ @ @ @ @ X X X X X @ X X Q Q Q y.t.G a.H @ 1 1 G d.m.M.M.9./ | | ;.o.o./ g.j.j.#.| ` N 9 ",
"n N D D V Z h f f p q - G : : : : : : @ @ @ @ X X X X X X X X X X 1 1 t.Q y.Q G 1 t.Q ^ d.M.V.c.} / &.o. .&.&.&.r.w.1.N / / / N ",
"o.&.&.&.V S m d r r w < 1 : : : : : : : @ @ @ X X X X X X X X X X X X G Q a.^ d.^ y.^ : H b.c.=.#.&.%.%.| |  . .| / r. .&.&.&.o.",
"&.;.o.o.N b m k k d w 1 1 : : : : : : : @ @ @ X X X X X X X X X X X X @ K y.a.a.y.t.1 @ X Q 4.#.V / / ` &.&.O.o.o.#.` ` &.&.&.O.",
"o.&./ / #./ V z y w t , 1 1 : : : : : : : @ @ X X X X X X X X X X X X X : y.y.Q G 1 1 X X o  .` / #.O. .o.O.&.#.&.o./ o.O.&.&.O.",
"` / N ;.&.O.| b V ) P : : @ # % : : : : @ @ @ X X X X X X X X X @ X X X X Q ^ Q : : X X X X / b D &.&.O.o.| / N N ` o.D o.&.&.O.",
"/ I ` o.o.&.O.N O.` L : : : : % @ : : : @ @ @ @ @ @ o X X X X X X X X @ X X 1 1 : X X X X X t b 9 / N N N N /  ./ D ;.| O.&.&.o.",
"/ I b N | | / / &.&.L 1 1 1 1 1 1 : @ @ @ @ X X X X X @ X X X X X @ X X X X X X X X X X X X 3 V N N ` &.,.1.&.&.o.` f.j.j. .` ` ",
"I  .O./ N N I w.,.&.P 1 : : 1 G G 1 : : @ @ X X @ @ @ X X X X X X @ X X X X X X X X X X X X 6 V b N ` &.&.&.&.#.o. .<.6.-.} D D ",
"| &.&.&.O./ j.j.r.;.L 1 : : 1 G G 1 : : : @ @ @ @ @ @ @ @ X X X X X @ X X X X X X X X X X X I o.N N N } ` o.T P ` 7.o.1.:.6.#.| ",
" . .&.&.&.| h.w.-.9.H : : : : G 1 1 : : @ @ @ @ @ @ @ @ @ @ X X X X @ X X X X X X X X X X X B o./ N O.1.6.9.E X J 7.o.f.:. .&.&.",
"&.| |  .O.o.9.5.<.-.7 : @ @ @ 1 1 , : : @ @ @ @ @ @ @ @ @ @ @ X X X X X X X X X X X X X X + ` o.O.l.n.v.p.1 X X X J -.} W U } &.",
"&.o.;.1.7.,.&.| / 5.1 @ @ X X 1 1 : @ @ @ @ @ @ @ @ @ @ @ : : @ X X X X X X @ X X X X X X 4  .D } b.z.y.K X X X X X U t.z.m.i.#.",
"&.O.1.8.8.1.&.O.` P : @ X X X : 1 : : : @ @ : : 1 H t.a.c.m.z.y.: X X X X X X X X X X : X M / / ! G : : G @ X X X @ a.m.c.b.=.} ",
"&.o.&.&.&.&.&.&.&.8 @ o X X X @ 1 : : H t.d.c.b.m.M.V.V.N.N.z.a.H X X X X X X @ X X X 1 @ a b N # X X X @ @ X X @ @ t.d.Q K @ M ",
"` O.&.&.&.&.&.&.&.5 @ X X @ @ : G t.m.C.C.V.N.N.N.N.V.V.N.N.z.y.G X X X X X X X X X X @ + w a m X X X @ @ @ @ @ @ @ @ : : : @ 4 ",
"| &.&.&.&.&._ S S < @ @ @ @ @ @ c.Z.S.A.C.N.M.N.N.V.V.V.V.V.z.y.: X X X X X X X X X X X X r f * X : t.t.1 X X @ 1 a.H 1 : 1 @ > ",
"o./ | O.O.O.S m z - @ @ : @ @ : m.C.Z.A.C.V.M.N.V.V.N.N.N.M.z.y.@ X X X X X X X X X X X O & O X 1 Q : @ @ X X 1 : d.d.t.: @ X o ",
"&.f.r.6.` m f r r * : : : @ @ @ d.V.Z.A.Z.N.M.N.V.V.N.M.c.z.a.t.@ X X X X X X X X X X X % > 1 X 1 : @ : : X   K t.t.G X X X X X ",
",.r.1.` N k r r r - : : : @ @ @ H N.C.Z.Z.V.M.V.C.V.M.M.m.z.a.t.1 : : : 1 1 G G K K K ^ y.d.y.@ : 1 1 : X X G 1 1 X X X     . X ",
"`  . .;.) r p d r * : : @ @ @ @ @ z.C.Z.Z.V.N.V.V.N.N.M.M.N.N.N.m.b.b.b.c.c.c.z.c.b.b.m.b.m.d.@ G X X @ : @ @ @ X X X X X @   X ",
"w.#.,.[ S i p d r * : : @ @ @ @ X K N.C.Z.C.V.V.V.V.V.V.C.C.V.V.N.N.M.m.m.M.m.m.m.m.M.M.N.b.z.1 G 1 K K 1 @ X X X X X X   X : X ",
"&.;.8.&.S m a d r * : @ @ X X @ @ @ z.V.C.Z.V.V.C.C.V.C.Z.C.C.V.V.M.M.m.m.M.M.M.M.m.M.M.m.d.c.: @ @ X X X X X X X X X X   X X X ",
"&.&.&.&.) z r d a * * @ X X X X @ X Q N.C.Z.C.C.C.V.V.C.Z.C.V.V.N.m.m.m.M.M.M.m.m.b.b.m.z.z.d.G X X X X X X X X X @ = o X X @ @ ",
"&.&.&.&.` V N B r > @ X X X @ @ @ X @ z.N.V.V.V.V.V.C.C.C.V.V.N.N.m.M.b.b.b.c.z.z.z.z.a.z.d.t.Q X X X X X X # M P 8 P 8 X X @ X ",
"&.&.&.o./ | #.Z k > @ X X @ @ @ @ X @ G m.m.m.N.V.V.V.V.V.C.V.N.M.m.b.c.c.z.a.y.d.z.a.d.a.t.t.t.1 X X X # 6 / | O.,.8.:.# X X @ ",
" .o.o.D I N / ` I * X X X : @ @ X @ @ X y.b.m.M.N.N.V.V.N.M.b.c.c.d.a.y.t.^ t.a.c.z.d.y.Q ^ t.H : X @ P <./ ,.1.8.8.8.8./ 2 4 ` ",
"V w.r.` ` &./ / Y @ X X @ : @ X X @ @ X @ z.b.m.N.V.M.N.b.d.y.y.t.Q Q ^ a.d.c.b.d.t.t.t.K K K K 1 c  .<.<./ &.&.%.,.,.o./ N n N ",
"/ 6.r.e.O.&.O.V 6 X X X : @ X X X : @ X X H c.c.c.b.m.b.z.a.y.Q Q t.y.a.a.y.a.y.Q Q G 1 1 K K 1 U <.O.9.;./ O.| ` | #.} V #.| n ",
"V -.w.,.7.7.;.| 5 X X @ @ X X X : @ @ X X X t.c.z.z.z.y.^ Q H ^ y.y.t.Q Q Q Q G : X @ : 1 1 : 7 -.:.<.u.f./ / / / / / ;.| r.j.w.",
"&.#.O. .o.%.| #.@ X X @ @ X X @ @ @ @ X X X @ d.c.a.^ K 1 H Q Q Q K H H G 1 @ X X X @ : : : > } :.-. .9.<.#.o.o.} 6. .&.7.1.9. .",
"` O.o.O.O.O.o. .+ X @ @ X X @ @ @ @ @ X X X X 1 t.Q 1 : : : : : : : @ X X X X X X X @ * @ 5 V O.&.;.-.w.:.V #.D <.e.w.&.:.;.O.I ",
";.&. .:.|  .O.M + @ @ X X @ @ X @ @ X X X X X X X X X X X X   X X X X X X X X X X o @ * 5 / ` ;.;.<.<.<.e.w.6.w.w.O. .O.| ` N 9 ",
"` ` / O./ ' O.M @ @ X X X X X @ @ @ X X X X X X X X X X X X X X X X X X X X X X X @ : 8 b 9 / ` / ;.w.6.r.u.w.&.} O./ N / / / N ",
"O.&.&.&.V  .&.M @ X X X X X @ @ @ X X X X X X X X X X X X X X     X X X X X X X X c N 9 N / ` / n o.;.&. . . . .` N N / &.&.&.o."
};
