/* XPM */
static char *result[] = {
/* columns rows colors chars-per-pixel */
"64 64 230 2 ",
"   c #0E0A0E",
".  c #120B0E",
"X  c #0E0B11",
"o  c #120C13",
"O  c #151215",
"+  c #191318",
"@  c #1A161C",
"#  c #1E1A1D",
"$  c #251E1F",
"%  c #2C221E",
"&  c #1B1923",
"*  c #1C1B23",
"=  c #231D24",
"-  c #231D2A",
";  c #292225",
":  c #25242B",
">  c #29252C",
",  c #362927",
"<  c #2F3D22",
"1  c #313E23",
"2  c #3D302A",
"3  c #262630",
"4  c #292733",
"5  c #2B2A34",
"6  c #2E2D3B",
"7  c #322E37",
"8  c #312E3C",
"9  c #37333B",
"0  c #422F2A",
"q  c #423D27",
"w  c #45332C",
"e  c #4C352C",
"r  c #443C2A",
"t  c #4B3B2E",
"y  c #543C2F",
"u  c #453735",
"i  c #4B3631",
"p  c #4D3B32",
"a  c #533D37",
"s  c #543D34",
"d  c #354323",
"f  c #3A4625",
"g  c #394627",
"h  c #3C4B25",
"j  c #3F4C28",
"k  c #3B5024",
"l  c #414326",
"z  c #404B27",
"x  c #43442B",
"c  c #4A432D",
"v  c #434C2B",
"b  c #494B2E",
"n  c #43512B",
"m  c #48512F",
"M  c #4C4431",
"N  c #4C4B32",
"B  c #4B4939",
"V  c #544335",
"C  c #594236",
"Z  c #534B35",
"A  c #55433A",
"S  c #5B453B",
"D  c #554C3A",
"F  c #5C4A3D",
"G  c #4A5232",
"H  c #465038",
"J  c #525236",
"K  c #55533B",
"L  c #5B523C",
"P  c #545A3D",
"I  c #644738",
"U  c #61453C",
"Y  c #614A3E",
"T  c #61543F",
"R  c #2D3341",
"E  c #343443",
"W  c #393744",
"Q  c #363946",
"!  c #3A3A45",
"~  c #373648",
"^  c #3C3B4B",
"/  c #3E3D50",
"(  c #413F4D",
")  c #413E52",
"_  c #3D404A",
"`  c #43424C",
"'  c #4B494B",
"]  c #5D4A42",
"[  c #5C4B45",
"{  c #5B5644",
"}  c #54504E",
"|  c #474651",
" . c #5B5355",
".. c #634D43",
"X. c #634A44",
"o. c #6A4E44",
"O. c #714E45",
"+. c #655245",
"@. c #695246",
"#. c #655B47",
"$. c #65534B",
"%. c #6C554B",
"&. c #6E594D",
"*. c #725347",
"=. c #72564C",
"-. c #7A554A",
";. c #71594E",
":. c #7C5A4C",
">. c #6D5B52",
",. c #685855",
"<. c #735D52",
"1. c #765A56",
"2. c #7A5D53",
"3. c #67644E",
"4. c #756156",
"5. c #7C6156",
"6. c #716950",
"7. c #75625A",
"8. c #7A655B",
"9. c #7D695E",
"0. c #7D6B61",
"q. c #7B6864",
"w. c #835C4E",
"e. c #825D52",
"r. c #895F55",
"t. c #846254",
"y. c #8B6356",
"u. c #8F6957",
"i. c #83645A",
"p. c #8B665B",
"a. c #846A5D",
"s. c #8C6C5D",
"d. c #94685A",
"f. c #946B5D",
"g. c #836761",
"h. c #836C63",
"j. c #8C6D62",
"k. c #926E62",
"l. c #857166",
"z. c #8D7264",
"x. c #86746A",
"c. c #8B766B",
"v. c #8A7A6C",
"b. c #937365",
"n. c #9B7465",
"m. c #937469",
"M. c #9B756A",
"N. c #93796D",
"B. c #9C7B6D",
"V. c #8C7B71",
"C. c #947C71",
"Z. c #9C7D71",
"A. c #A27868",
"S. c #A37B6D",
"D. c #AB7D6E",
"F. c #A47D71",
"G. c #AB7E70",
"H. c #908177",
"J. c #9B8273",
"K. c #988579",
"L. c #AA816F",
"P. c #A48172",
"I. c #AC8375",
"U. c #A5877A",
"Y. c #AB867A",
"T. c #AD8A7C",
"R. c #B28476",
"E. c #B48A75",
"W. c #B38679",
"Q. c #B48A7B",
"!. c #BA8C7D",
"~. c #B9917E",
"^. c #AD8D82",
"/. c #B38D81",
"(. c #B98D83",
"). c #B49182",
"_. c #BD9282",
"`. c #BE9688",
"'. c #B39B8C",
"]. c #B99A8B",
"[. c #B7A59F",
"{. c #C28F82",
"}. c #C29485",
"|. c #C69A87",
" X c #C69789",
".X c #C49A8C",
"XX c #CB9C8C",
"oX c #D09F8F",
"OX c #CF9F91",
"+X c #D19F90",
"@X c #CDA08E",
"#X c #D2A28F",
"$X c #CDA191",
"%X c #C9A897",
"&X c #D4A494",
"*X c #D8A897",
"=X c #DCAB9C",
"-X c #DAB09E",
";X c #E3AD9D",
":X c #E3B29E",
">X c #DAAEA3",
",X c #DDB2A3",
"<X c #E4AEA1",
"1X c #E4B3A3",
"2X c #E9B4A5",
"3X c #E6B8A6",
"4X c #ECBAA6",
"5X c #EAB6A8",
"6X c #EDBBAC",
"7X c #F1BEAD",
"8X c #F2BFB1",
"9X c #EDC0AF",
"0X c #F3C1AE",
"qX c #EDC5B6",
"wX c #F4C3B4",
"eX c #F9C5B4",
"rX c #F3C8B6",
"tX c #F9C7B9",
"yX c #F5CBBB",
"uX c #FACBBC",
"iX c #F5CEC0",
"pX c #FBCFC1",
"aX c #F5D1C2",
"sX c #FBD2C3",
"dX c #F7D6CB",
"fX c #FCD6CA",
"gX c #FCDACD",
"hX c #FCDED2",
"jX c #FDE2D5",
"kX c #FBE4DA",
/* pixels */
";.;.;.%.Y L ;.;.&.+.S %.Y ;.;.&.F Y v g b d h d f f f d d g v N +.;.%.%.Y Y =.;.;.@.C V I ;.;.=.Y Y ..@.;.%.%.%.%.;.Y +.=.=.;.%.",
"%.;.X.D +.N ] %.&.F S Y &.;.;.@...&.h d d f 1 < d 1 < < < d f f h L Y ..=.Y T %.%.C S Y =.=.=.@...;.%.@.$.%.%.K ;.%.K b J #.;.&.",
"L Z Z @.m G v M ..+.<.5.5.5.%.%.&.;.g 1 d 1 1 < 1 1 < d f f h m F V S <.;.%.@.C ..+.;.t.5.4.@.b D %.] N b b n h v +.%.v m T &.&.",
"..Z z h v h g g %.@.=.;.;.;.=.F %.] x 1 g g ] $.F B 1 1 d h Z Y D 4.0.<.%.;.+.x n k n J #.%.G Z V ] g d < d h d < B @.b z J T @.",
"] p r c h d d D %.<.;.;.&.@.%.$.C S +.;.;.<.<.<.%.4.{ h d h V F ] 9.4.4.+.x < d h J #.;.#.$.$.+.v k k h k d 1 1 1 h Z N z z +.+.",
"] &.Z f d d K 9.;.;.&.&.@.S ..%.%.;.@.<.;.=.;.%.%.%.%.b l h b D F <.<.$.Z 1 g v b K D D +.S V v z V v z v x h k d k h h l f Z Y ",
"$.%.b b v h f g D L @.%.F @.%.%.....S @.%.%.@.&.%.4.%.n h C F D $.&.;.;.<.B f f f f m %.V @...b F r z h L v v j v h k z l v T +.",
"@.@.+.+.D v d h h h l Y %.=.;.=.@.S %.<.5.5.5.t.5.2.@.N h v %.&.%.%.;.;.;.7...1 0 r c J @.;.%.+.+.s L +.2.N b N b v c x j F #.=.",
"&.%.@.+.@.v j h h h p %.;.;.;.;.%.F %.4.2.;.;.;.;.=.=.F Y T +.;.&.%.@.%.;.@...v h c e $.&.;.<.<.;.F %.5.%.n K Z G Z m V Z %.&.;.",
";.%.<.2.&.Z Z h h t >.>.%.<.%.S %.%.%.;.=.;.;.;.=.%.....4.4.&.;.>.%.<.<.2.<.&.+.F s S <.4.;.@.S U D %.&.F J ;.>.8.&.Z ..;.;.;.;.",
";.%.5.5.2.&.N v Z ..4.<.....o.Y Y S Y S Y %.%...+.S +.;.5.t.;.;.4.0.a.a.5.8.<.&.<.X.8.8.q.&.........8.8.+.%.>.0.l.9.%.<.5.5.2.5.",
";.%.;.<.;.%...$.=...>.&.0.<.S S @.%.S C C +.....c b b %.;.;.4.x.H.V.x.K.x.V.x.h.5.$.>.<.1.$.&.S ..;.8.9.>.+...1.8.] 7.6.<.;.;.;.",
"@.&.;.;.;.;.;.=.<.+...7.0.7.@.<.5.4.%.S U ..V v l l h &.&.>.0.v.l.c.J.c.K.K.K.Z.C.9.9.$.] <.;.<.5.5.%...X...<.<.0.h.+.+.%.%.%.%.",
"@.&.<.;.;.;.=.%.%.+.$.] %.<.<.;.=.;.@.;.;.V G b l h h >.v.v.0.%.z.J.C.N.z.l.x.N.z.9.x.7.%.<.<.;.;.;.@.<.%.S 1.0.x.x.<.+.&.%.&.;.",
"&.+.%.&.;.=.$...$.g.x.7.2.2.<.=.;.=.%.;.&.D c f h f N V.U.l.C Y <.8.l.a.h.a.;.@.=.%.%.>.8.0.<.;.;.;.%.<.<.%...+.9.1...@.;.;.;.&.",
"&...+...$...X.] ..4.<.<.<.;.;.=.;.=.<.+.L K m g d H 0.c.y.@.Y y i i s t t C D &.$.....<.<.7.q.;.;.%.<.@.%.@.] 1.$.] Y T &.;.;.;.",
"$.....X.7.q.,.8.;.;.%.%.%.;.;.@.=.%.%.F x z h n P &.<.t.n.I.b.@.F t p e r e A p w w i X.] +. .&.@.%.%.X.S S @.<.&.5.5.+.Y %.;.;.",
"..S S @.9.9.%.%.%.;.$.a =.%.%.%.;.Y S Y +.N m P +.Y t._.9X,X.XP.i.*.=.I I I S s e 0 i i w e ] 7.<...S Y %.+.%.@.F ;.;.%.8.l.5.@.",
"F %.2.2.4.<.] %.@.%.o.a ..X...o.Y ..%.%.{ b { ] C I `.rXsXuXyXqX>X@X.X}.!.`.Y.j.=.X.a e 0 a ..&.$...%.;.%.+.%.%...S ..;.9.8.4...",
";.<.5.5.2.o.S @...S ..%.;.%.o.S <...%.%.[ +.V V S !.eXsXfXhXkXkXgXfXsXpXpXfXiX,XOXW.j.-.=.2.i.o.$.&.;.;.%.=.%.+.Y ..S ..$.&.<.>.",
"=.;.;.;.%.Y ..@.%.%.;.<.;.<.<.@.Y ..Y S >.>.&.%.D.5XeXuXfXhXkXjXjXgXgXfXfXpXpXpXiXtX5XXXR.).~.t.@.,.G m N D S %.%.%.%.;.Y s C %.",
";.;.=.=.@.@.;.;.;.<.@.%.@.@.%...%.;.=.S l.0.5.T.1X4XwXeXsXdXgXsXsXaXyXuXtXuXuXtXuXuXtXwX:X&X@X~.e.X.#.l q V %.;.=.@.=.<.+...Y %.",
";.;.;.%...@.;.;.;.%.%.%.%.;.;...%.;.<.9.9.=.z.-X:X7X4X7XeXyXyXyXwX0XwX0X7X7X0X6X6XwX9X3X;X*X&X*X(.o.+.m h z b J %.<.8.5.o.@...;.",
"%.%.%...Y F ..%.@.;.;...$.;.$.o.5.5.5.h.>.y _.3X2X2X2X2X4X4X0XwX6X6X9X3X1X3X1X1X1X,X=X*X*X*X*X=X1Xm.A { N c Z +.5.5.t.5.@.Y F %.",
"C C F s @.=.+.+.;.%.%.S S S S @.<.5.;.8.S @.&X1X<X<X2X;X2X2X7X7X5X5X5X1X>X1X=X=X*X&XOXOXOX+X*X=X>X.Xs } z h v K %.4.<.%.o.S s s ",
"C s s C %.;.%.Y Y Y S %.;...&.S %.@.%.<.i j.&X;X=X;X<X<X6X8XtXuXuXyX8X5X1X5X5X5X2X1X*XXXXX+X+X*X*X$X:.A G v V D ..@.%...F ;.%.a ",
"X.C C =.5.5.;.@.s X.%.;.;.U ;.D X.&.<.+.e M.#X*X;X;X<X;X5X8XuXsXfXuXeX6X7XwXrXwX8X3X=X&XXXXX+X+XOX XM.a m v b F +...Y +.o.<.;.o.",
"=.;.%.=.%.L G v b %.;.%.=.%.Y D N S S A e n.|.*X;X;X;X2X8XyXpXpXsXpXtXwX8XuXuXtX8X6X<X+XOXOX+XOX X!.m.S N N D +...S &.;.&.%.%.X.",
"+.%.%.%.&.%.+.b b z #.@.%.=.Y %.b N V B s f.|.&X2X2X5X7XwXwX8XwXwX8XwX7XwXtX8X6X6X4X4X5X=X+X*XXX{.W.j.a &.a ..Y ;.h.9.;.<.=.$.S ",
"C X.@.F +...F N z d d D ....@.;.D v @.B s s.|.&X3XeXyXwX6X=X+X&X&X&X&X*X*X*X+XOXoX+X;X<X5X<X=XXX!.(.r.a >.%.%...h.l.l.;.@.@.S s ",
"C U Y Y F J m b b z d d V s X.@.D n &.[ C b.|.&X6XrX3X&X}.G.G.R.R.R.!.~.Q.Q.W.G.D.W._..X=X6X3X$X_.W.=.w $.;.;.;.0.8.4.S ....X.S ",
"%.;.;.;.Y L Z b h h d < x ..Y Y s v %.{ a k.XX&X,X(.k.=.U C X.e.t.u.D.L.A.f.d.e.:.:.t.z.Z.).XXXX{.W.U u >.@.%.%.@.+.9.%.<.;.=.%.",
"=.;.%.%.S V Z B b b d < Z ;.Y K c v H 3.u s.#X-XI.:.I ( a w 0 a I e.G.}.!.j.O.s e e e s O.@.B.XX}.T.a w ;.;.%.%.%.;...@.;.;.;.%.",
"%.;.X...;.Y Y N h d b Z %.;.F j f h j { w t.*X`.2.O.y , ; , 2 , w e.*XqX<XF.I , % = , a U o.2.Q..XU.a @.%.%.;.;.;.%...%.&.;.;.;.",
"+...F <.;.%.@.s F ..<.5.5.5.Z h h h g 3.w j.&XI.e.i i 2 , 9 &.p 0 o.qXgXyXI.e , = = 5 [ s U =.f.`.F.a g.=.@...F S @.%.F %.%.<.%.",
"....@.%.%.;.;.S %.@.%.;.&...b h d d g 6.S J.$XI.r.t.i.2.a 1.i.U U s.aXkXdXQ.e 2 , , a 8.o.Y *.u.`.U.=.g.Y S ..%.Y Y ;.%.%.<.;.%.",
"] ] V S @.@.X.X.;.=.&.%.+.A v h 1 d d 6.;.T.#X}.(.`.W.S.b.p.-.O.s.}.aXkXsX`.=.M Y ;.i.g.k.m.p.n._.U.2.s.1.2.;.;.%.+.h.l.l.%.@.+.",
"] %.;...] S X.8.<.;.%...V z h f 1 d f v.P.T.:X1X&X(.A.f.t.t.u.F..X%XyXkXyX}.P.s.-.@.-.e.y.M.Y. XOXI.b.m.<.;.=.;.%.@.4.4.<.$...] ",
"@.&.;.;.%...l.x.9.<.%.%.t N v h d h v B.).I.:X3X5X,X.XE.E.}.=X1X=X=XrXkXwXXX~._.~.J.s.f.n.R.{.+X$XF.B.l.%.%.L +.+.4.%.<.<.4.&.@.",
"&.@.;.;.%.$.l.9.>.7.$.Y L J v h k h k U.@X!.:XwXsXsXuXyXwXwXwX4X=X:XrXgXwX#X|.|.@X*X=X=X;X3X2X&XXXD.I.h.2.5.#.L +.2.%.0.4.%.;.;.",
"%.@.@.@.&.%.7.4.1.<.] ] F K v h n V G ~.$X~.6XuXsXgXfXsXuXrX8X2X;X3XyXsXrX>X&X+X*X;X4X0X8X8X8X2X&XA.W.j.4.;.T b b @.=.&.;.&.;.;.",
"<.%.<.2.1.2.>.%...0.h.[ F +.Z v A ] K K.@X`.6X7XeXeXeX4X*XOXXX:X4XeXuXyXuX7X=XoX}.XX*X1X6X8X5X;X&XS.XXa.+.%.K b v V Y D <.<.;.;.",
"=.;.2.5.2.2.;.;.@.$.7.>.>.F D ..] S Z J.*XXX-X;X:X;X*X_.G.n.D.4X0X0XuXyXpX8X1X6XR.f.R.XX+X<X<X*X.XQ._.@.b F n c k r D +.;.5.<.;.",
"<.$.=.<.<.;.;.;.&...>.9...a S S ..%.S ^.1XXXXXoXXX}.R.n.e.f.R.XX*X-X3X-X>X=X&X&XG.y.d.A.(. X XOX}.~.}.T n x h z h l x D &.;.:.;.",
"@.;.=.;.;.=.;.;.;.+.+.] a S X.<.5.1.=.g.B.L.R._.W.n.e.-.t.F._.S.:.A.!.R.D.I.f.y.A.f.r.y.A.D.!.{.}.E.~.&.v f h h h z q L @.@.@.&.",
"@.%.;.;.=.<.%.L K F +.S o.<.2.=.,. .| 9 ; 2.I.W.y.w.*.*.M./..XT.2.*.e.p.r.:.:.j.S.S.y.-.w.d.S.W./.P.9.4.+.1 1 h h h q Y &.&.;.;.",
"=.+.%.%.%.;.D J N h j V 1.q. .| ` ^ E & X ,.Y.M.p.=.=.j./..X.X).B.:.Y *.X.O.5.z.Z.Z.j.=.-.e.f.G.T.H.&.&.%.D b h l r V +.;.;.;.;.",
"&.h.9.7.+.D v h j H ' ' | _ ^ / ~ 8 - o   X.G.B.g.O.<.m.^./.`.`.T.b.w.I o.:.p.M.Z.M.j.5.O.2.i.F.U.N.4.%.=...D z z b F T *.;.;.;.",
"4.9.4.$.S B { ' ' | ` ` / / ^ E 6 - @ . . ( B.m.j.5.o.o.;.p.M.R.{.G.A.j.p.k.M.Z.B.b.a.=.;.w.s.J.J.3.L +.S ] %.Y ..4.5.@.@.4.;.;.",
"%.&.$.7. .| ` _ _ _ / ^ / ~ E 6 4 - +   . e C.j.N.j.z.j.s , @.f.f.j.r.e.-.w.e.e.%.2 w Y s.b.z.n.N.%.S F %...%.+.Y ;.;.%.8.4...@.",
" .| _ ` ` ` ) / | / ~ ~ E R 6 3 - & o     % j.j.h.N.Z./.T.<.=.].$X].).j.Y.M.B.Z.o.i 9.a.z.b.z.m.V.>.%.;.&...#.&...Y Y 9.x.9.+.C ",
"/ / _ _ ^ ^ ^ ^ ^ ~ E R E 8 5 3 - = o     + 1.g.5.j.P._.|.@Xf.k.^.'.'.m.].V.g.i.r.S.P.s.s.s.z.m.,.u +.,.>.<.&.$.F X.S 8.9.>.4.&.",
"^ ^ ) W ^ ^ ^ ^ ~ E E R 8 6 4 : - @ o   X @ [ 8.7.5.N.~.}.@X*X@XI.m.e.-.p.f.S.G.G.W.G.s.a.h.z.c., X : 9 _ }  .$.#.$.&.4.4.4.&.&.",
"E ~ ^ ) E E ^ W E E E 6 6 4 3 - = @ o   X & [ 7.4.6.a.I.|.}.@X#X=X*X.X.X}.}.W.R.!.W.U.a.a.l.l.+.. X O * 5 Q Q Q ^ `  .,.$.+.F %.",
"R E W W ~ 6 E E E 8 R 6 5 3 : = & o X X X & q.q.&.6.a.J.].@XE.Q.W.R.I.G.A.S.L.L.E.Q.F.a.a.g.q.2 @ X   X & 3 R R E Q ! ! ` '  .7.",
"R R W W W 6 7 E 6 R 6 4 3 : ; * & o X o o & ^.^.5.4.a.J.~.@X|.P.u.:.w.2.w.w.u.P.Q.T.B.c.l.0.u > : * O O O * 3 6 R Q R E Q ~ E ~ ",
"7 W W 9 9 4 3 7 7 4 4 4 > = = # # + O O O * H.[.V.>.q.C.'.%X%X].B.h.2.1.2.s.M.U./.U.C.g.h.1.> > > > $ # + # ; > 3 5 6 7 6 9 7 8 ",
"A $.>.>.+.+.] A a a i [ X.A ] s S S S F [ [ q.x.9.4.7.8.9.N.x.C.h.9.9...1.2.2.%.%.@.X.1.1.$.+.>.4.#.] $.[ a ] S A S ] [ A ] [ p ",
"] >.9.<.1.5.<.@.8.%.%.=.;.S &.....;.;.=...F ....[ ] S $.@.;.=.@.X.7.%.;.5.5.1...s o.%.;.&...<.7.4.>.<.0.h.$.o...$...$.<.@.0.x.8.",
";.&.%.%.%.<.@.<.@.=.;.=.%.@.....U Y s ..&.G D %.F N S ;.;.;.%...;.%.%.%.=.;.@.Y U ;.;.%.%.@.] @.>.>.,.7.<.&.%.%.$.<.%.;.8.<.8.$.",
"@.&.%.%.%.%.%.7.%.2.;.@.;.;.U ;.;...C V +.k M Z V b s &.&.&.F F @.%.%.%.;.%.@.s %.2.<.%.;.;.X.%.;.>.>.8.<.S &.Y 1.9.7.<.<.<.%.] ",
";.;.%.<.@.%.;.@.%.+.Y 9.9.X.o.;.;.Y @.N p h c x x z V K F v M y b Z Y S @.%.%.@.@...........@.;.<.<.<.<.9.7.4.8.7.&.%.%.o.@.S a ",
"$.+.] &...@.;.%.%.&...8.4.S ..$.+...+.v M h b v b f r b j b x h x t S ..X.%.<.@.%.%.S F C s X.@...1.9.1.9.q.7.<.+.&...S X.X...S ",
"%.%.<.&.Y %.;.%.<.%...+.&...o.X.C %.J h c f b d h l f h k h f c D %.;.;...@.<.%.;.;.Y s C ..@...V @.>.>.&.&.%.@.$.A S ..;.;.;.%."
};
