/* XPM */
static char *_fc95e670d424c3098c220593b4cbb54WXYaWABtS0eqBhSb[] = {
/* columns rows colors chars-per-pixel */
"64 64 250 2 ",
"   c #161516",
".  c #191917",
"X  c #161919",
"o  c #1B1B1B",
"O  c #2F1C15",
"+  c #1F211D",
"@  c #38281B",
"#  c #1C1C21",
"$  c #201D20",
"%  c #1E2123",
"&  c #242324",
"*  c #29282A",
"=  c #372C27",
"-  c #3D3226",
";  c #333A25",
":  c #3C332B",
">  c #313037",
",  c #383533",
"<  c #462819",
"1  c #4E301E",
"2  c #452E23",
"3  c #552E25",
"4  c #463727",
"5  c #4A3525",
"6  c #433A2C",
"7  c #4C3A2B",
"8  c #563927",
"9  c #4C3C33",
"0  c #493C37",
"q  c #563E35",
"w  c #573E37",
"e  c #663C2E",
"r  c #354322",
"t  c #3A4625",
"y  c #3C4C25",
"u  c #3B4828",
"i  c #3D5027",
"p  c #434729",
"a  c #44442B",
"s  c #434B2B",
"d  c #494B2E",
"f  c #5A422E",
"g  c #45502C",
"h  c #4D4332",
"j  c #4C4B31",
"k  c #4D423B",
"l  c #544335",
"z  c #594336",
"x  c #534B35",
"c  c #5D4C36",
"v  c #554339",
"b  c #5C453B",
"n  c #554B3A",
"m  c #5D4A3D",
"M  c #4B5132",
"N  c #545238",
"B  c #5B533C",
"V  c #67422E",
"C  c #7F432A",
"Z  c #694835",
"A  c #614A3E",
"S  c #754B39",
"D  c #69533D",
"F  c #72533D",
"G  c #78543B",
"H  c #3F464F",
"J  c #544545",
"K  c #5D4B41",
"L  c #5D5346",
"P  c #4D4B50",
"I  c #634D43",
"U  c #694E44",
"Y  c #734849",
"T  c #655145",
"R  c #695246",
"E  c #695646",
"W  c #6C554A",
"Q  c #6E594D",
"!  c #735443",
"~  c #7A5A45",
"^  c #71574D",
"/  c #71594E",
"(  c #6E5B51",
")  c #695E5A",
"_  c #735D52",
"`  c #785E53",
"'  c #6B654F",
"]  c #79624C",
"[  c #746156",
"{  c #7B6256",
"}  c #7A6B56",
"|  c #766359",
" . c #7A655B",
".. c #7D6A5E",
"X. c #595964",
"o. c #5F606C",
"O. c #746865",
"+. c #7E6A61",
"@. c #6D6B76",
"#. c #935539",
"$. c #A3603D",
"%. c #875946",
"&. c #975C4C",
"*. c #875C52",
"=. c #84634C",
"-. c #88664A",
";. c #94654B",
":. c #8F704F",
">. c #856A53",
",. c #876956",
"<. c #8C6B54",
"1. c #946C55",
"2. c #986A56",
"3. c #8B7259",
"4. c #94735A",
"5. c #997759",
"6. c #9B745B",
"7. c #A87052",
"8. c #A4755B",
"9. c #A37B5D",
"0. c #886360",
"q. c #826D63",
"w. c #857165",
"e. c #8C7464",
"r. c #867369",
"t. c #8C796A",
"y. c #947A67",
"u. c #9B7C64",
"i. c #8C7972",
"p. c #A37C62",
"a. c #A67A65",
"s. c #A17368",
"d. c #B47C68",
"f. c #AD825D",
"g. c #988269",
"h. c #9C846D",
"j. c #8D8575",
"k. c #9C8773",
"l. c #A58264",
"z. c #AC8265",
"x. c #A3856B",
"c. c #AC846B",
"v. c #A7896B",
"b. c #AC8A6C",
"n. c #B48666",
"m. c #B3856B",
"M. c #B48C6C",
"N. c #B6916F",
"B. c #A68B77",
"V. c #AC8C73",
"C. c #B58775",
"Z. c #B48C73",
"A. c #BB8D73",
"S. c #AE9379",
"D. c #B59274",
"F. c #BB9374",
"G. c #BE9976",
"H. c #B4947B",
"J. c #BB957B",
"K. c #BC9A7D",
"L. c #C28D6C",
"P. c #C3926F",
"I. c #C39577",
"U. c #C39B7C",
"Y. c #C99B7B",
"T. c #C9A07C",
"R. c #747584",
"E. c #857C84",
"W. c #85879A",
"Q. c #988F90",
"!. c #A28E89",
"~. c #AB9685",
"^. c #B49583",
"/. c #B49A84",
"(. c #BC9B83",
"). c #B79C8A",
"_. c #ADA28F",
"`. c #BDA38B",
"'. c #BAA496",
"]. c #8D94A9",
"[. c #8A92AE",
"{. c #9499AC",
"}. c #969DB2",
"|. c #9A9DB3",
" X c #989EB8",
".X c #A29FA6",
"XX c #9AA1B5",
"oX c #9CA3BB",
"OX c #9AA6BA",
"+X c #A6A1A8",
"@X c #A3A8B8",
"#X c #C39C82",
"$X c #CA9E83",
"%X c #C9978F",
"&X c #C29A89",
"*X c #C4A285",
"=X c #CBA285",
"-X c #C5A28A",
";X c #CBA38B",
":X c #CEAA8D",
">X c #D2A68D",
",X c #D3AA8E",
"<X c #D8AD8D",
"1X c #C9A897",
"2X c #CCAB94",
"3X c #D4AD93",
"4X c #D6AB96",
"5X c #DBAE9A",
"6X c #CDB49C",
"7X c #D6B297",
"8X c #DBB49B",
"9X c #DCB99E",
"0X c #E1B49D",
"qX c #D1B1A5",
"wX c #DDB5A2",
"eX c #DDBAA3",
"rX c #D6B8A8",
"tX c #DEBCA9",
"yX c #E6BBA7",
"uX c #E2BCA4",
"iX c #E3BEAA",
"pX c #E8BFB2",
"aX c #DBC3B4",
"sX c #E6C2A7",
"dX c #E5C2AD",
"fX c #E9C4AD",
"gX c #E5C4B3",
"hX c #EBC5B2",
"jX c #E5C8B6",
"kX c #EDC9B6",
"lX c #E6C9BA",
"zX c #EACBBC",
"xX c #F2CFBB",
"cX c #9FAAC3",
"vX c #A4ADC6",
"bX c #A9B4C7",
"nX c #B6B9C6",
"mX c #ADB6D2",
"MX c #B4BCD3",
"NX c #BAC5DA",
"BX c #C3CBDD",
"VX c #E8CDC1",
"CX c #EAD1C4",
"ZX c #ECD5C9",
"AX c #EBD8CD",
"SX c #F6D0C5",
"DX c #EDDCD3",
"FX c #F5D8D2",
"GX c #F6E1DB",
"HX c #C5CEE6",
/* pixels */
"^ / Q W m m J , & & & o o o   .     o o > HXNXX.  P R.W.@.X.W.bXmXvXoXXX X X}.}.}.].R.    o o o o o         o o o $ & & * 0 R W ",
"Q / I n T j m E K , & & o o   . . o o o * BXHXHX@XO.T U ) @XmXbX@X X}.XX}.XXXX}.}.}.W.>   o o o o o o . . . . o + & * , x E / W ",
"m x x E M M i j I R W 0 * & o o . o o o * MXHXMXE.I F Z 5 J {.|.}.|.|.}.XXXXXXXX X X{.@.  . o o o o o . . o o & * J E s d B Q W ",
"I x s t s y t u Q R Q / Q J , $ o o o o % bXNX.XI F G Z 8 < 2 E.].{.}.}. XoXoXoXoXoXoX].> o o o o o o o o & ; u ; j R j s x T W ",
"K 9 4 a y r r n / / / Q Q R R , + o o o o }.bXO.~ ~ F Z 8 5 < = @.[.[.].}.oXoXoXoXoXoX X@.  o X o o o o & ; ; r ; y x j y y R R ",
"K Q N t t t N ../ / Q Q R b I W : % # o X ]..X` ~ ~ F f 8 5 5 5 4 o.W.].]. XoXoXoXoXOXoX].% X X o # # & a a t y r y y y 6 u x I ",
"R W j j s y t u n n R W b R R W I : % o X R.Q.{ G F D f 8 f 7 7 5 9 X.W.[.}.XXXXOXvXvXvXXXH X o o # & u B d u i s y y u a p T T ",
"E R I T n s r t t y a I W / / / I z = % # X.Q.` F Z D f 5 7 7 7 7 5 v L W.[.}.oXcXcXcXcXOXR.  o # & k T ` j g x j s d u y I T Q ",
"/ R R R E s s y y y 9 Q / / / / Q b R * % J Q.~ Z D D z 7 4 2 7 4 5 w l J R.{.oXOXcXcXvXvX}.* o & 6 Q { W s N n M x j l x E / / ",
"/ Q _ ` Q x x y y 7 _ Q W / W A E E W k & , Q.! Z D c l 9 4 2 5 7 5 7 f w v @.}.oXcXvXmXmXbXP $ * b Q Q m N / Q | Q x I / ` / / ",
"/ W ` { ` Q M d v I [ _ I I I I I v m z * > j.F A c v k k 0 0 0 9 7 4 7 8 w z O.XXvXbXmXMXMX@.# w I  . .R W Q +.r...E ` { { ` { ",
"/ W / / / Q K R Q I ( ( +._ b b R W b w : >  .F m v n v l v v 9 v v 9 7 7 7 z Z | XXbXMXNXNXR.& I _  . ._ I I _  .I | _ / _ / / ",
"R Q / / / / / / / R I | ..[ R _ { { W b w * { A K W ! E ! ! ! T T n L L l w z Z D +.@XMXNXNXo.9 { { E I I I _ _ q.q.R I R Q E W ",
"R / / / / / Q W W R R K ( ` ` / / / R / Q 9 E T ] y.3.3.<.;.=.=.] / / ' Q T c D F =.j.nXNXBXJ W / / R / W v | +.r.r.[ I Q Q Q / ",
"Q R E Q / Q I I R q.r.| [ { _ / / / Q / ( E ] } h./.^.V.a.9.4.1.1.<.3.w...[ W T D =.y..XNXnXW / / / Q / / Q I I | ` I E / Q / / ",
"W I I I I I I K I [ _ _ _ / / W / ^ _ E / ] 3.y.~.1X6X1X-XA.c.a.5.u.u.y.t.w.[ / A ] u.k.nXQ._ Q / Q _ E Q R b ` R b I I W _ / / ",
"E I I I | q.W | Q / Q R W / ^ R W W Q Q >.<.:.5./.1XqXrX1XF.c.z.z.x.u.u.g.t.r...] ! 4.B.+Xi./ R W W W I b b R _ _ { { I I E / / ",
"I v b R  . .E Q ^ / I z Q R Q / / I / >.<.-.=.:.v.(.;X*XZ.z.9.z.a.c.c.h.g.g.y.e.3./ 3.S.!.` W / / A b I E I W R m / / W  .r.[ R ",
"A Q ` ` [ ` m E R W I z I I I I I R ,.5.4.>.] -.5.b.z.5.5.1.<.5.p.z.c.l.u.y.y.t.t.e.>.B.!.I I I I I W / / R W Q I m I /  . ._ I ",
"/ _ { { ` I z R I b A W / / R b ` ~ u.h.h.:.=.:.b.N.5.-.G D Z F %.4.l.a.5.3.3.t.t.t.e.y.s.Q R b w m Q ^ R Q ^ I b I b I E ( _ _ ",
"/ / / / W A I R Q Q Q / / / / R I 4.x.g.x.g.:.:.b.M.p.a.s.&.%.%.%.=.5.l.6.<.} e.t.h.y.y.B.Q / R r t y s j n b R W R Q / I w z W ",
"/ / / / R R / / _ _ R W E E W I { l.V.V.V.H.5.-.5.Z.&X1XqX%Xd.d.a.s.s.p.z.4.>.y.g.h.h.g.!.W E g t y s 6 4 x E / / R / / I I A W ",
"/ / / W I E / / Q Q R Q E / / I e.b.b.S.S.(.V.<.V 3 e Y 0.*.%.*.2.s.s.9.8.<.4.x.k.h.h.k.~.` Q s t t s s y s s N W ` { { U R I _ ",
"R W W I K m I W R / / I R / R R x.x.b.D.J.*XJ.V.x.4.Z 1 < 1 @ 7 < < 3 Z S -.5.B.B.h.x.k._.' g y r t y s d a x T ` { { { R A m Q ",
"z z b w R / I I / Q Q v b v b ^ V.v.D.K.K.-X;X`.`.1X(.5.%.S S e e e Z F ~ 4.5.V.S.x.x.x.)...y r r t t y y y s N Q ` _ W I z w z ",
"w w w z Q / Q A A A b R Q e.U.C.V.b.J.=X=X*X7X6X6X6X6X-XC.d.m.8.8.p.a.5.5.p.l.v.S.v.x.x.~.!.R u y y y y y s v v I R W I m Q R w ",
"I z z ^ { { / R l I W / { qXuX-XS.D.#X:X3X=X:XeXrXtX6XZ.9.4.5.9.6.9.p.p.l.b.m.z.D.V.l.x.~.).*.R N N d y y s s m I I m R R / Q I ",
"/ Q W W E B M s d E / W B.>XJ.x.H.K.#X-X7X7X=X2XiXgX6Xp.2.=.~ -.4.5.p.c.b.M.n.n.Z.V.b.B.~.).2.8.m.y.l h d j n R I b Q _ Q W W I ",
"R Q W W Q W T l d s W R 1XxX2Xg.`.`.#X;X3X9X7X;X2XeX&X;.~ F F =.3.5.9.M.M.z.f.M.M.b.b.B.).~.a.n.A.1X,.z E v I I Q q..._ / / I b ",
"z I R m R I m x s r ; K rXiX).B.`.*X*X:X3X9X9X:XK.-Xs.e V S ! *.=.-.7.n.d.n.M.M.M.b.b.S.).~.>.5.m.(.(.` _ W W I q.r.r.Q R R z w ",
"z b A A m N g s d s r u tX;X).S.*X-X:X3X8XuXuXeX:XD.#.< S %.;.Z 3 %.2.9.z.I.I.F.D.Z.D.S./.~.] 9.n.F.K.u.W / / / .. .` b I I I b ",
"W / / / m B x d y t r M uX$X)./.;X:X7X9XuXsXsXhXuX;X>XC.d.d.m.s.y.a.8.m.I.Y.I.I.F.F.H.H./.).>.x.7.7.P.c.R R W E R I +.E / / / W ",
"/ _ W W v l x j j s t } $XI.~.&X7X9XsXfXfXsXuXyX0X,XwXfXuX5X,X%X%X#Xm.Y.Y.Y.Y.Y.I.J.J.J.).'.3.b.m.$.L.d./ Q Q W W / R R / / / Q ",
"W / I I Q I m j u t d 5.d.M.y.;XeXfXxXkXsX7X,X<X3X<X2XkXFXSXpX4X&Xc.J.Y.Y.Y.Y.I.I.U.U.U.(.'.y.v.A.$.L.7./ Q / / / W I W Q / / Q ",
"R I b _ / Q R v m T { 7.#.p.>.6XgXxXkX9X3X=XY.I.$X=X7XpXFXSXyX>XC.Z.I.Y.U.I.F.F.U.T.=X#X(.'.B.x.8.7.L.7./ R I b v R W A W / / Q ",
"I K R W W / Q b Q R ` $.#.<.{ qXdXfX7XG.M.n.n.Z.A.F.;XiXSXSXwXJ.D.F.I.I.D.M.F.G.K.U.U.*X*X`.B.e.p.m.d.;.b v I E I A _ R Q / / W ",
"I K l b R R I I / / ` Z.2.5 ] 7X9X,XF.M.9.5.;.2.5.8.c.7XzXFXwXJ.Z.Z.c.z.z.c.b.M.D.F.G.U.(.).k.>.c.c.&.#.` ` / / W R q.r.r.E R R ",
"K E Q I b z K  .` / Q e.m = / 2X*Xz.5.5.-.1.1.;.%.&.2.#XVXGXtXJ.c.5.2.;.%.;.5.l.Z.D.D.D.K.K.3.D u.Z.C ;._ / / / W E _ [ ( R I A ",
"R / / / Q I r.r..._ E E = = ! &XJ.;.-.G *.r.L T h.<.=.v.ZXGXdXH.1.;.%.1.4.e.e.1.p.l.l.v.H.H./ v A a.C.u.E E B R R { W ` _ [ Q R ",
"E E / / / R w. .( | R l = @ { &XV.=.G 8 w L = ,  .W Z =.FXGXkXZ.G G ~ t.n J i.w.=.=.1.x.(.S.E k 4 z ,.` { { E L R ` W q._ Q / / ",
"/ R R E Q W | [ _ _ K 0 @ @ <.-X/.=.~ Z V 7 @ - 7 < < G kXFXhXp.V 3 8 v : , ) ) Z F <.h.).S.! 6 = 0 / { ` / D d j R Q Q Q Q / / ",
"/ W _ ` { ` / R I +.q.: @ 7 4.(.1X(.=.G V 8 1 @ O O 3 -.>XfX4X9.V < < 2 2 - m U D =.<.k./.^./ 7 - , R W T W B d s v I n ` ` / / ",
"/ Q ` { { ` / Q R W [ : - b u.J.2XtX(.=.Z e 3 3 8 V S %.n.F.A.5.G V < O < 8 V ! ! ~ 3./.).^.,.l = = T z s m g h y 6 n E / { ` / ",
"/ W / / / / / / / I W - - D p.F.#XeXtX&X^.u.1.%.;.2.2.8.f.n.n.9.;.%.V 8 8 8 8 V Z >.H./.).^.e.l - - m l y d y s y a s v Q / / / ",
"R Q / / / / / / / R K : 2 ~ 9.U.;X8XhXdX6X1X&XU.A.A.A.L.A.I.F.m.z.a.5.;.=.=.<.4.Z.-X)././.~.e.x 4 6 m n s r t t y u 6 m R E W W ",
"R / / / / / E B B m K - < F l.U.-X8XeXhXkXhXpX0X4X4X>X,X>X<X>X$X#XI.A.A.J.(.(.#X:X-X^./.^.^.y.c 7 - K _ R ; ; y y y 6 m Q Q / / ",
"W I R Q Q Q B x j y s 4 2 F p.U.:X8X8XiXhXhXfXfXhXhXiXsXsXfXsXuX9X5X>X;X;X;X;X-XU.J.K.^.^.^.y.T v - n / Q n j t a 7 v E / / / / ",
"/ q...[ R x d t t t t 6 4 ! l.#X:X8X8X5XyXfXfXfXhXkXkXhXdXdXdXhXhXyX8X5X4X;X#XJ.F.F.J.H.H.H.4.D l 6 l W Q T x y s a c I W / / / ",
"` ..` R z j y y y y r : 5 D Z.-X2X8X8X0X8XuXyXfXhXkXhXdXuXuXuXsXfXuX8X,X-X#XK.I.F.D.J.H.D.H.u.! x - l I b m R m I ` { U R [ / / ",
"R W E _ T y s s y t ; 6 7 V (.;X3X8XuX0X0XyXsXfXfXdXyXuXwXuX9X9XuXuX5X>X$XY.#XU.K.K.K.J.D.D.x.] l 4 l I E I W R b _ / Q  .[ I R ",
" .Q ` E B a s s y y r : 7 f Z.4X3X8X8X0XuXiXfXfXdXiXwXwX5X5X4X,X,X3X>X;X$X$X=X$X$X#X#X#XK.J.b.>.l 7 R / / R E Q I A I ..r.+.R z ",
"/ _ { / B x a s y y r s 7 c >.8X8X8X7X8XyXdXfXhXhXdXuXwX8X5X4X3X>X>X>X$X=X>X>X;X;X$X=X=X#X#XJ.4.5 l W ^ E Q Q R m I b  ...( [ Q ",
"/ / / / T j y s d y s s 7 l D ;X8X8XwXwXdXfXhXhXgXjXdXdXuXwX8XuXuXeX9X8X8X5X3X>X>X;X;X;X;X-X#Xx.4 m m b v b b R Q E Q ` _ _ Q Q ",
"/ / / / R m c n y d s d a 7 l >.9XeXeXuXdXhXhXhXjXjXjXlXhXjXhXhXdXgXiXuXeXwX7X3X3X,X,X,X>X>X-Xu.l / / b l I / / / R _ _ I I I E ",
"/ / / W I R Q N l A i m s j 7 8 V.uXiXiXdXgXjXlXlXzXzXzXzXlXlXjXjXdXdXiXuXeX8X8X8X7X3X3X3X3X;Xc E _ q.q.I z I W Q _ { { I R I / ",
"E W W A K b I R R W j m d d I E R 1XiXgXgXjXlXlXlXVXCXCXCXVXzXjXjXgXdXiXiXuXeX8X8X8X8X8X3X3X~.I { { r.[ ` I ` { { { { { R m m W ",
"m  ...R R / I I / W K z v a l I [ t.rXgXgXlXlXzXCXZXZXZXZXCXzXlXjXgXgXdXiXuXeXeX9X8X8X8X8X1X( R ` ` | _ _ I / / ^ ` _ W I z v z ",
"I | .. .Q / Q m A A b R / R Q b W R r.rXgXlXlXVXZXAXAXDXAXZXCXzXlXjXgXdXiXuXuXeXeX8X8X8X4Xq._ q.r.[ Q | _ I Q R R R Q R m Q R v ",
"m (  .` { { _ E  .W W / Q m / I I Q Q  .6XjXCXCXZXDXDXDXDXAXCXVXlXlXjXgXiXiXuXeXeXwXwX1Xq.A _ [ [ _ _ +.q.I I I I I I _ R ..r. .",
"/ Q Q E W ^ R _ R / / W Q W I I A A z I / k.VXCXZXAXDXDXDXZXCXCXlXlXjXgXuXiXuXeXeXwX'. .Q R I E _ ( W | _ Q W W R [ W / { ` | W ",
"R Q W Q Q Q W [ Q ` ` R ^ ^ I Q / I w l I i [ qXZXAXAXDXAXZXCXzXlXlXjXdXiXtXtXtX6XB.{ R Q Q I Q / _ (  ._ m Q A _  . ./ _ _ Q K ",
"_ / E _ R E Q R R I m .. .I R / / I R j h y j d } _.aXCXZXVXVXlXlXjXgXaXtXrX1Xi.Q I I R I I R / / _ _ _  . .[  . .Q W Q R R z w ",
"R R I Q I R Q W Q Q I  .[ v I R I I T s h t j s s p x ' j.!._.'.'.'.'.!.r. ./ W Q Q b m l w I U I _  .[ ..+. ._ T Q I b I I I b ",
"Q / / / A E / Q / Q A R Q I U I z R N p h t d t y 6 t y y y t d v E _ / A E / Q / Q m w z I U I z W _ / E W W E R b z I / _ / W "
};
