/* XPM */
static char *_63904926f3f4108b8576bdfc3e4df316jadZXih14hlGXTu[] = {
/* columns rows colors chars-per-pixel */
"64 64 174 2 ",
"   c #232323",
".  c #292725",
"X  c #272924",
"o  c #2A2925",
"O  c #2B2B2B",
"+  c #302A27",
"@  c #322E2B",
"#  c #2E3423",
"$  c #2F3D22",
"%  c #343624",
"&  c #323D23",
"*  c #37312D",
"=  c #3C322D",
"-  c #373E2D",
";  c #333333",
":  c #3B3533",
">  c #3C3B3B",
",  c #413D27",
"<  c #44362A",
"1  c #443C29",
"2  c #4B3B2E",
"3  c #413732",
"4  c #443A35",
"5  c #4E3D33",
"6  c #463E39",
"7  c #4B3F39",
"8  c #553F34",
"9  c #583F38",
"0  c #354323",
"q  c #394625",
"w  c #374924",
"e  c #3C4C25",
"r  c #3B4529",
"t  c #3E4B28",
"y  c #3D5026",
"u  c #3E5029",
"i  c #404527",
"p  c #404C27",
"a  c #44442C",
"s  c #4A432E",
"d  c #434C2A",
"f  c #494C2E",
"g  c #44512D",
"h  c #48512F",
"j  c #434234",
"k  c #4C4432",
"l  c #434B34",
"z  c #4C4B32",
"x  c #43423E",
"c  c #4D423D",
"v  c #464D3B",
"b  c #544235",
"n  c #594236",
"m  c #534B35",
"M  c #55443D",
"N  c #5B453B",
"B  c #554C39",
"V  c #5D4A3D",
"C  c #465134",
"Z  c #4B5131",
"A  c #525236",
"S  c #55533A",
"D  c #5C523D",
"F  c #614A3F",
"G  c #434343",
"H  c #4B4543",
"J  c #4C4A46",
"K  c #4C4B4B",
"L  c #534944",
"P  c #5D4B42",
"I  c #514D4B",
"U  c #5A4D48",
"Y  c #4C5245",
"T  c #4E5941",
"R  c #4D5148",
"E  c #555346",
"W  c #5E5145",
"Q  c #5F5941",
"!  c #53524E",
"~  c #5D5049",
"^  c #535353",
"/  c #5B5654",
"(  c #575952",
")  c #595C53",
"_  c #5C5C5B",
"`  c #634D43",
"'  c #684E45",
"]  c #655245",
"[  c #695247",
"{  c #665A46",
"}  c #665348",
"|  c #64524A",
" . c #685348",
".. c #695449",
"X. c #6B554A",
"o. c #6A574A",
"O. c #6C5449",
"+. c #6C554A",
"@. c #6C564B",
"#. c #6F574C",
"$. c #6D594C",
"%. c #6F584C",
"&. c #6E594D",
"*. c #6F584E",
"=. c #72574E",
"-. c #70584C",
";. c #73584F",
":. c #735B4F",
">. c #665952",
",. c #6E5A51",
"<. c #625D5B",
"1. c #715A51",
"2. c #745B51",
"3. c #745D52",
"4. c #725F55",
"5. c #795F53",
"6. c #6C605A",
"7. c #726157",
"8. c #746156",
"9. c #7A6056",
"0. c #7D6257",
"q. c #756158",
"w. c #76635A",
"e. c #7D6258",
"r. c #7A655B",
"t. c #7D695E",
"y. c #636363",
"u. c #656360",
"i. c #6B6665",
"p. c #676962",
"a. c #6F6B65",
"s. c #6B6B6B",
"d. c #6C6B6B",
"f. c #6F6E6D",
"g. c #7D6961",
"h. c #716A68",
"j. c #716C68",
"k. c #7A6E69",
"l. c #6E7268",
"z. c #767E6B",
"x. c #747474",
"c. c #7A7775",
"v. c #7C7B7B",
"b. c #816D63",
"n. c #816D64",
"m. c #847066",
"M. c #867369",
"N. c #81756E",
"B. c #88756C",
"V. c #807570",
"C. c #837873",
"Z. c #8A7C76",
"A. c #817F7E",
"S. c #82807F",
"D. c #8C827E",
"F. c #848484",
"G. c #888685",
"H. c #8B8B8B",
"J. c #9D8D86",
"K. c #938F8D",
"L. c #949493",
"P. c #9C9C9C",
"I. c #A3A3A3",
"U. c #A9A5A3",
"Y. c #ABABAB",
"T. c #B5ABA7",
"R. c #B3B0AF",
"E. c #B4B4B4",
"W. c #BABABA",
"Q. c #C3C3C3",
"!. c #CCC7C6",
"~. c #CACAC9",
"^. c #D5D5D4",
"/. c #DADAD9",
/* pixels */
"=.;.#.@.V V *.*.*.[ n X.` ;.;.;.V ` d r d 0 p Y v ( _ ^ ) T d z  .;.@.@.N F @.;.;.[ n 8 F ;.;.;.V ` ` [ ;.;.@.X.*.*.F [ ;.;.;.@.",
"#.;.` B ] z D X.#.N n F #.;.;.[ ` *.q 0 q C ) ^ _ K G ^ _ _ ) l e D F ` ;.F ` @.@.N N F #.;.;.[ ` *.@. . .=.{ D ;.#.S d A { ;.@.",
"V m m { Z Z t k ] [ 2.0.e.9.;. .*.*.r l ! ^ K > > ; O > G K ^ u.W b n 3.;.#. .n ` ] ;.0.0.9.{ f B X.V k z d d e a [ @.p f D *.@.",
"` m d w p e w r *.[ #.;.;.;.;.V X.} ( K G > ; ;   O O G > G K d.j.7.b.1.@.;.W a d e d A ] @.Z b n V i 0 & 0 w 0 $ z  .z p m ] @.",
"P 5 < s e 0 0 B ;.;.;.*.#. . .X.M H > ; O O O O     O G ; ; K K f.N.q.4.} a $ 0 q A { 7.{ [ } ] p e e e e 0 & 0 & e m z e e [ [ ",
"P #.A q q w S t.;.;.#.#.[ N ` X.: O .     O O O       O G > ^ G / c.q.} m & q p f B B B ` V M f d b d d d i q e 0 e e e , q m ` ",
" .X.z z d e q r B B  .@.N  .[ :             @     O O   O G K > K d.k.;.4.z 0 w q w Z X.n  .` d N 2 p d D a t t d e e q i i ] ] ",
"X.[ ` ] B p 0 q q e i ` @.;.M               O O     O O O O G > K y.c.;.;.4.P , < < s A  .;.#.] [ 8 S ] 5.z h m z d k t e P ] *.",
";. .[ [ X.p p e e e 5 #.#.=.:               O       O O ; O > G ^ d.v.#.#. .] d e a 2  .*.;.;.;.#.V *.9.@.d S m Z m z b m { ;.;.",
";.#.1.3.*.m m e e 2 4.*. .#..                 O O O ; ; ; ; > K _ i.G.t.9.3.*.[ V 8 n 4.4.;.@.F F V @.#.V A ;.*.q.*.m ` ;.3.;.;.",
";.@.5.0.5.*.Z f n ` 8.4.P M             O     O O O ; ; ; > > K G x.F.B.0.9.;.*.3.` e.r.t.,.` ` ` ` q.q.[ @.*.g.M.t.X.3.0.0.5.9.",
";.@.;.;.;.@.V  .*.` ,.,.t.4             O O   ; ; ; O O O O ; G O K v.Z.;.;.;.;.;.` ,.4.4.} #.V [ ;.q.r.1.` ` 4.r.` q.4.;.1.;.;.",
"[ *.;.;.;.;.;.;.;.[ ` q.q..             O     ; > O O O   O O ; O G H.C.;.;.;.;.;.[ ` ` P 4.#.3.9.9.X.` ` ` 4.4.n.b.[ `  .@.@.@.",
" .;.;.;.;.;.#.@.@.[ } P U               O O O ; K ; O       ; O K x.f.K.;.;.3.3.@.[ [ 4.X.3.3.;.;.;. .;.@.n 8.g.M.B.8.` *.@.#.;.",
"*.[ X.#.;.#.` `  .b.M.q.}               ; ; ; ; K _ K > > K ^ / i.H.L.S.X.@. .4.[ ` ,.X.9.0.2.;.;.;.#.;.;.#.` ` e.4.` X.*.;.;.;.",
"@.` ` ` ` ` ` P ` 7.4.4.U             O > G G G K d.v.f.y.y._ y.f._ A.I.X.` [ ` V 8 1.n.b.;.;.#.;.#.1.X.#. .V 4. .V ` ` @.;.;.;.",
"X.` ` ` q.n.@.q.*.;.*. .P             O ; G G / f.v.H.v./ K y.F.A.i.i.U.v m  .r.;. .,.q.e.;.;. .@.@.@.` N V  .1.1.9.0.` ` X.;.;.",
"` n N  .r.r.X.*.;.;.` n  .o             O > / x.H.H.H.P.F.i.y.H.L.L.I.W.z.a [ @.*.*.} 4.1.[ @.;.;.F V ` X.` @.[ F ;.;.@.q.M.8. .",
"F #.5.3.8.4.V X. .@.` n ` 5       O O O ; G d.F.v.H.L.H.L.d.^ v.F.F.Y.^.~.X.V X.X.X.` n ` V ` ` ` ` @.;.;.[ X.#.` V ` ;.q.q.4.` ",
";.1.0.9.5.` n  .` V F @.;.;.P O   O ; ; > K G G _ x._ d.F.d.G f.P.F.P.~.^.R.P [ F V F X.;.*. .N 8 V #.=. .#.#.` V ` N ` X.,.4.1.",
";.;.;.;.@.F `  .*.#.@.;.;.;.;.M O ; ; > G ; O O O ; G i.F.c.G K L.Y.L.W.~.I.x 4 ` } } #.;.;.;.[ 0 q e d z B N  .@. .#.;.` 8 n *.",
";.;.;.;.[ [ ;.;.;.;. .@.X.X.X.` 4 ; ; ; O O     > _ _ v.H.F._ ^ H.W.P.E.W.x.O O ; > ; L }  .X.h q e p , , m X.;.;. .;.;.` ` F @.",
";.;.;.@.` X.;.;.#.#. .*.X.;.;.` @.U : ; ; ; O O ; G _ x.S.v.f.x.F.P.P.I.P./   O O O O ; > > I J Y - v C d d d A @.3.0.e.' [ ` ;.",
" .@.@.` P V ` @. .;.;.` [ ;.[ ` 9.9.#.: _ _ K > > > / _ y.s.y.d.f.F.F.v.H.;   O O     O O O ; O O ; K / E s m ] 3.0.0.0.[ F V #.",
"n n V 8 [ ;.` ` ;.#.#.n V n n ` 2.9.3.P x.L.v.f.^ _ / _ ^ _ _ _ y.i._ i.d.    O     O O O O O   O O ; > K R l A *.3.2.@.` n 8 n ",
"8 8 8 n #.;.#.F F F V  .*.[ #.V @.[ X.` u.P.P.x.> G _ d.i.^ ^ ^ ^ ^ ^ y.G             O O O       O O O > K K V `  .@.` V #. .9 ",
"` n n =.9.0.;.[ 8 ` @.;.#.F ;.V ` #.#.X.<.I.I.P._ ; x / s.^ G G G G G _     .                     O O O O ; K / } ` V [  .;.#.` ",
";.#.@.@.X.D Z d f X.;.@.#. .` n z F 8 ` L v.H.G > G ; K _ _ G > G G G ;                             O O O O O ; G N *.;.*.@.@.` ",
"M @.r.*.*.@.] b f d X. .*.#.` @.f z 8 a M K G O G > ; ; / / > ; ; K K O                             O O O O O ; > G ~ ;.;.;.` V ",
"K v.L.D.[ ` V m p 0 & V ` ` [ ;.B d ] 0 .     O O > G G O         ; _ I._                             O O O O O > K K c  .[ n 8 ",
"K P.P.A.P A h d f p 0 & 8 8 ` [ n g ` X       O ; G > ;         O O ; v.Q.;                                   O O ; G > c ` ` n ",
"O _ x.K N D m f e w 0 $ a ` ` V 5 t *           O O >           G _ G K P._                                       O O ; 6 ;.;.@.",
"    ; ; M n m z z d w $ z 1.F S s #               O >           y.y.K ^ d._                                       O ; ; L ;.;.#.",
"      ; P ` V z t q a z *.1.N t r                             O i._ K v.F.> O                                       O ; H ;.;.#.",
"O       H *. .n V ] 3.9.0.4.m e #                     O       O G _ f.P.v.; >   O                                     O H *.;.#.",
"O       @ @.#.V #.[ #.;.;.` d %                       O       O O > v.F.K > G > G O                                     > X.;.@.",
"O       O ` ` ` ;.;.;.#.{ n t X                     O O       > > ^ P.F._ K K K > ; x ;                             O O G }  .[ ",
"O       : n P e.3.;.#.` m p #                                 O > ^ P.f.y.K ^ > O O ^ v.G           O O O O   O O O   O O 4 F F ",
"O     . ` ` M.M.t.1. .@.2 j G G > ;                               O > G K ^ G > G ; G H.v.;           O O             O > J #. .",
"O     / 1. .m.r.,.q.} V L _ _ _ / / G O             O                   ; > ; ; K ; d.^ H.G                       O   O O > } ;.",
"@   > F.C.#.q.7.4.4.P L _ y.y._ / ^ K G .           O O                   O O >   O _ G K G O                         O O > >.;.",
"@ O x.F.H.Z.1. .` t.6./ y.i.i.y./ K K G ;                                           G _ > G O                   O > ^ y.f.H.U.3.",
"* ^ f.v.H.L.C.1. .} ^ d.v.F.F.x._ K K G > O                                           > > G O G O         ; G y.F.P.Y.E.E.~./.m.",
"H ^ x.x.H.L.L.V.*.! y.x.L.I.P.G.i._ i.K > ; O @                                 O       O O > H.v.> ; > ^ d.v.H.L.I.Y.E.E.Q.^.J.",
"H G y.x.F.L.P.L.c.v.v.F.P.U.I.L.H.F.F.K > _ N P                                   O     O O _ I.P.H.i.K K _ f.v.F.H.P.U.Y.W.^.T.",
"c > / x.F.L.P.P.L.L.L.L.U.I.P.P.L.H.x.G G k.[  .O                                     O O ; v.I.I.I.I.S.i._ _ y.i.x.H.P.U.Y.~.!.",
"c > G y.x.F.L.P.P.P.U.Y.Y.I.P.L.H.H.i.> i.q.` X.:                                         > x.H.L.P.U.I.L.H.v.d._ _ d.v.L.I.E.^.",
"L : G / i.x.H.L.L.P.U.E.E.I.L.L.H.v.K K q. .V *.4                                       O ; / d.F.L.P.I.U.U.P.L.L.F.x.d.d.v.P.Q.",
"} ; > K i.x.v.F.v.d.H.E.E.U.P.P.H.y.! >.N V  .` =                                       ; ; > G y.v.H.P.P.I.I.I.I.P.P.P.I.H.d.L.",
"[ : ; G / i.f.x.i.^ i.P.U.I.I.P.v._ W V @.` @.[ 4                                       O > ; > G _ i.F.L.P.P.I.U.P.P.I.Y.E.U.H.",
"q.U ; > G / _ y._ K _ v.H.P.P.F.p.l r d f S X.#.P                                         O > > > G K _ F.F.H.L.L.I.P.F.H.L.Y.Y.",
";.1.L ; > G K ^ K K ^ i.v.L.H.l.g y d ] ] h D [ V +                                         O ; > > G G _ x.F.F.H.H.L.F.v.v.H.P.",
";.;.;.6 ; > G G G K ^ y.x.F.a.g e p g t n n k  .@.3                                           O ; > G G G ^ f.F.H.F.H.H.F.x.x.F.",
";.;.;.@.: O > > G K ^ y.u.E ` d f p ] u a ` *.1.;.7                                             O > G G > > G / x.F.H.F.F.F.x.x.",
";.;.;.@.V : ; ; > G x P h f @.m m f ;.Q a n ` [ @.`                                               O > > G G G G K _ v.F.H.H.H.F.",
"X.@.@.F P N 7 x J } z V f f ` ` *.*.0.*.B F 3.9.9.5.                                                O > > > G G G G / f.F.L.P.I.",
"V q.t. .[ ;.` ` *.@.P n n a n ` 1.5.3.3.X.@.;.#.#.3.@                                                 O > > > G G G K _ x.H.P.Y.",
"` q.t.r.#.;.#.V F F N  .;.[ #.V @.[ X.X.[ [ #.X.[  .3                                                   O > G > > > G ^ _ v.H.I.",
"V ,.r.3.9.9.1.X.q.@.@.;.*.V ;.` ` #.#.#.` F ` ` ` P 4                                                       ; > > > > G K _ f.F.",
";.*.#.X.@.=. .1.[ ;.;.@.#.@.` ` F F n ` X.Z B X.V z 5                                                           ; ; > > G K _ c.",
"[ #.@.#.#.#.@.8.#.5.3.[ =.=.` #.;.` 8 n ` e k m b d 5 o                                                             O ; > K _ h.",
"1.;.X.4. .X.#. . .` V t.q.` [ ;.;.` [ z k e k d a p 5 *                                 O O O                         ; x J U n ",
"[ [ ` #.`  .#.@.#.#.` q.7.n ` [ ` ` ] p k w z d p i 1 %                               O O O                           > } [ ` V ",
"#.;.;.;.V X.;.#.;.#.F  .*.` ' ` n  .S p s w f q e 1 q 0 .               O O   O O O O O O     O O O O O O O O       O > } 1.;.@."
};
