/* XPM */
static char *result[] = {
/* columns rows colors chars-per-pixel */
"64 64 246 2 ",
"   c #1E2629",
".  c #252B2F",
"X  c #2F3D22",
"o  c #313E23",
"O  c #7D3E0E",
"+  c #463C2A",
"@  c #503C2E",
"#  c #4D3E34",
"$  c #553F34",
"%  c #583F38",
"&  c #703C27",
"*  c #1D5D3F",
"=  c #354322",
"-  c #3A4625",
";  c #3A4627",
":  c #3C4C25",
">  c #3F4B28",
",  c #3C5026",
"<  c #434729",
"1  c #43442B",
"2  c #434C2B",
"3  c #4A4B2E",
"4  c #4E502B",
"5  c #4C4431",
"6  c #4C4A32",
"7  c #4B4B36",
"8  c #544335",
"9  c #594237",
"0  c #534B35",
"q  c #564339",
"w  c #5C453B",
"e  c #554C3A",
"r  c #5D4A3D",
"t  c #4B5132",
"y  c #525236",
"u  c #55533B",
"i  c #5B523C",
"p  c #7A4926",
"a  c #6B4D33",
"s  c #694837",
"d  c #614A3E",
"f  c #615E30",
"g  c #373C40",
"h  c #1D5D40",
"j  c #255D41",
"k  c #3C5F43",
"l  c #1E6343",
"z  c #236A49",
"x  c #296B4D",
"c  c #356F4F",
"v  c #28714E",
"b  c #2A7351",
"n  c #2F7B56",
"m  c #347C54",
"M  c #564B45",
"N  c #5E4A40",
"B  c #4D544E",
"V  c #5B5747",
"C  c #634D43",
"Z  c #684F45",
"A  c #7C4E40",
"S  c #655245",
"D  c #695247",
"F  c #665249",
"G  c #6C554A",
"H  c #655A48",
"J  c #6E594D",
"K  c #71574D",
"L  c #7B5649",
"P  c #71594E",
"I  c #665B53",
"U  c #6E5B50",
"Y  c #735D52",
"T  c #795F53",
"R  c #506A4A",
"E  c #456B52",
"W  c #467A55",
"Q  c #6E624F",
"!  c #696355",
"~  c #746156",
"^  c #7C6256",
"/  c #766259",
"(  c #7A655B",
")  c #7D695E",
"_  c #487972",
"`  c #7E6A61",
"'  c #707A74",
"]  c #B01009",
"[  c #B43817",
"{  c #CD2612",
"}  c #C9392C",
"|  c #8B5116",
" . c #9B6715",
".. c #89492D",
"X. c #974C38",
"o. c #8F5134",
"O. c #AB4E35",
"+. c #B54E34",
"@. c #BC5135",
"#. c #917133",
"$. c #AA7131",
"%. c #EA4D1D",
"&. c #F5461D",
"*. c #FC451B",
"=. c #F74A18",
"-. c #F84A19",
";. c #F65418",
":. c #F46917",
">. c #E17614",
",. c #F37518",
"<. c #CB4E2D",
"1. c #DB4A27",
"2. c #C84D33",
"3. c #E94823",
"4. c #F34621",
"5. c #E65B33",
"6. c #8C594A",
"7. c #A65C4A",
"8. c #8D684C",
"9. c #816D63",
"0. c #857166",
"q. c #867369",
"w. c #B36A64",
"e. c #CD7F5D",
"r. c #1F9D33",
"t. c #358257",
"y. c #398559",
"u. c #3B8A5C",
"i. c #3F935E",
"p. c #30A443",
"a. c #58894E",
"s. c #438358",
"d. c #42945D",
"f. c #42995E",
"g. c #698A55",
"h. c #5AA95D",
"j. c #459B60",
"k. c #499D62",
"l. c #478472",
"z. c #6C9064",
"x. c #46A162",
"c. c #4EA564",
"v. c #4EAA66",
"b. c #4EAC69",
"n. c #50A665",
"m. c #51AD67",
"M. c #52AE69",
"N. c #57A86D",
"B. c #4FB069",
"V. c #52B169",
"C. c #56B468",
"Z. c #5EB674",
"A. c #72AA66",
"S. c #66B96A",
"D. c #6CBB6C",
"F. c #73B96A",
"G. c #61AC74",
"H. c #64B573",
"J. c #3DC65B",
"K. c #57CB6F",
"L. c #6DC26B",
"P. c #72C46B",
"I. c #67CA7A",
"U. c #A69021",
"Y. c #AF9334",
"T. c #DF821C",
"R. c #F48618",
"E. c #F2961B",
"W. c #F5A919",
"Q. c #E0BB18",
"!. c #F6BA15",
"~. c #CF9231",
"^. c #EE8A27",
"/. c #D1B236",
"(. c #F6A933",
"). c #E2B23E",
"_. c #FCDD0F",
"`. c #E8CE1D",
"'. c #F8C715",
"]. c #FAD414",
"[. c #FCDC11",
"{. c #F9DB1A",
"}. c #CAC528",
"|. c #EFD128",
" X c #FBE133",
".X c #98954D",
"XX c #BAAB4D",
"oX c #8C8B6E",
"OX c #AB9863",
"+X c #96A062",
"@X c #AEA678",
"#X c #D19452",
"$X c #CFAE53",
"%X c #E8B040",
"&X c #CC896C",
"*X c #CAB36C",
"=X c #E6D553",
"-X c #F8E650",
";X c #C7CC6F",
":X c #E7D77E",
">X c #FAE868",
",X c #FBEB78",
"<X c #728C8B",
"1X c #768596",
"2X c #709490",
"3X c #77BE85",
"4X c #7F97B0",
"5X c #75CC86",
"6X c #8D9396",
"7X c #A89399",
"8X c #90A891",
"9X c #A6A78E",
"0X c #8A8BA1",
"qX c #8499AB",
"wX c #92A8B0",
"eX c #B3B6AE",
"rX c #9CCA91",
"tX c #9ECEA5",
"yX c #A2D1A9",
"uX c #A8D4B2",
"iX c #B3DABD",
"pX c #B4E3BD",
"aX c #D1D28D",
"sX c #E4DE9B",
"dX c #F6EB88",
"fX c #FDEE8C",
"gX c #FCEE91",
"hX c #E3DFA1",
"jX c #82B7D1",
"kX c #ACB9C5",
"lX c #BBD0C7",
"zX c #BEE2C1",
"xX c #C3DECA",
"cX c #CAE8D1",
"vX c #D3E9D8",
"bX c #D5E8D8",
"nX c #DDF1E2",
"mX c #E5EEE6",
"MX c #E8EFE9",
"NX c #E4F2E7",
"BX c #EBF4ED",
"VX c #F0F8EE",
"CX c #EFF5F0",
"ZX c #F3F7F3",
"AX c #F6FAF6",
"SX c #FDFDFD",
/* pixels */
"K K G G r C J P Y S w D C P P P r d 2 ; 1 = < = : - = = = - 2 6 G P G G d d K P K D 9 9 a P P K d d C D J P G G J J d S P P P K ",
"K Y C e S 6 i G G w w C G P P D C J : = = : o X = X X o o ..- - : i d C K d d G K w 9 d J K K D C J G D D J S i P J y 3 y H P G ",
"i y 0 D t t > 8 C S Y ^ ^ ^ K D G Y ; o o o X o X X X = ..&.< 3 r 8 w T K J D w i S P ^ ^ ^ H 3 e J r 7 3 2 2 : 1 S G 2 4 V J G ",
"C 0 2 - > : : ; J D G P P P P r F C 1 o ; 1 M D r e o p &.4.a r e Y 9.U D K S < 2 , 2 y H G 4 8 8 N ; = X = : = X 7 D 6 < 0 f G ",
"N # + 5 : X = e P P P P G G D D w w C Y P T P K G T G 3.*.*...N N ) / ~ S ; o = : y S ~ H F F S 2 : , : , = o o X : y 3 : : S D ",
"N G y - - - y ) P P G K D w C J F P D Y P P P K G F +.*.*.*.O.w N Y U F e = ; 2 3 r 0 r S w q 1 2 5 2 , 2 - : : = : , < 1 - e d ",
"F G 6 6 > : - ; u e D G w D G G C C N F D G Z G K T 1.4.*.*.3.s S T U P ~ 7 = ; - - t G 9 F C 3 r + < 2 i 3 < : 2 : , - 1 1 i S ",
"D D S i e < = : : : 1 d G P P P F w F Y T 8.9.T 8.T 4.4.*.*.*.2.J 2.L P J ~ N + o + 5 y S J G S S @ i S T 6 2 y 3 2 5 2 > i S K ",
"P D D S F 2 > ; : : # G K K K P P r G ^ T P Y K 2.<.-.*.*.=.*.*.@.%.1.A Y D S > : 5 # F J J Y K K r J ^ H 2 M q t 0 4 8 0 D P P ",
"P G Y ^ J 0 0 : : @ U U G Y G r D D G K G K J P 3.*.*.*.*.R.=.*.*.*.4.3.6.T J F X.& % Y Y Y F C d r D J N y J U ~ J e i Y P P P ",
"P G ^ ^ T P 7 3 8 d ~ Y C C Z C C w d w C K D A 4.*.*.*.*.!.,.*.*.*.*.*.3.6.K G <.3.9.T ` U F C C C ( / S J U ` q.` G Q ^ ^ T ^ ",
"P G P P P G C F J S U U ` Y w w Z G w $ w +.A o.&.*.*.*.;.].W.-.*.*.W.-.&.1.P 6.4.*.2.Y U F G w C J / ) Y S C Y ( N ~ ~ Y P P P ",
"D J P P Y K Y K J C F / ) T F Y ^ ^ D r a 3.1...*.*.=.E.:.[.{.;.*.;.].R.*.&.6.2.*.*.&.O.C Y G T ^ ^ D C C F Y Y 9.` S S D J G G ",
"D P Y P K K G G G F F N J Y Y J P K D Y @.*.&.&.*.*.=.].'.[._.W.*.R.[.'.;.*.<.&.;.:.&.3.6.6.T K P P D Y G % Y ` q.q.T C P J J K ",
"G S D J K G F C F 9.q./ T T Y K Y L K T 1.*.*.*.*.-.:.[._._._.].:.'._.[.W.,.*.*.,.W.*.*.&.7.K K P P G Y Y G N F ` Y S G P P K P ",
"J S C F F C C N F T Y Y Y K K K L 2.L A &.*.*.*.=.R.R.[._.[._._.]._._._._.!.*.-.!.].=.*.*.2.K K P K Y D G G N Y F N d i G P P P ",
"D S C C / 9.I T G P J G F P K D +.4.6.X.*.*.,.:.=.'._._._. X{._._.[._._._.].;.,.[.].=.*.*.1.P D G G G C d r S P P ^ ^ Z d D P P ",
"C w w D ` / G Y K K F % P D G L 3.*.3.1.*.=.].'.%.'._._.[.-X X_.[.{._._._._.:.'._.{.:.;.-.4.K Y K C w C G d G D d P P G ( q./ D ",
"N G T T T T N F G G Z % C C 6.+.*.*.*.4.*.R.[.[.!.'._._.{.,X>X_.{.>X[._._.].'.[.].[.,.E.;.4.s D N X.L K P S D K C d C P ( ( ~ S ",
"P Y ^ T T Z w F C % C G P K } *.*.*.*.;.R.!.[._.{.`._. X,XgXfX X XfX-X[.[._. XQ. .Q.'.'.;.3.D w X.4.6.G D K K S r d w C G J Y P ",
"P P K K G C C Z G U G P U U 1.*.*.-.*.R.[.{.[.[.{..X`.XXdXfXdX,X>XgX,X-X_.{.>X .p O U.!.=.<.L 2.*.&.p : 3 0 r D F G G Y C 8 9 J ",
"P P P K F D P P P Y G G F G 3.*.*.;.:.W.=XQ.[.{././.A.;XrXhXfXgXgXsXhX,X_.-X$Xp jXqX .E.-.1.3.&.:.*...+ + 9 J P K G K K C C d G ",
"P P K G C D P P K G G G G Y <.*.*.:.{.XX7X2.>.}.XXa.n 3X+X+X;XgXsXeXlXeX;X:X| oXtXaX{.,.1.[ :.'.E.*.1.4 , 2 3 y G Y T ` Z D d P ",
"D K G N C r C G G G P C F Y O.*.R.T.{.@Xw.{ ^.c b b b x.B.B.a.:XwX4XkXwX4X6X8.=X-X{.].$XqX| U.[.R.*.%.4 4 + 0 d Y 9.T 8.D d r G ",
"9 9 d $ D P d S P K G w r w s &.:..X+X2X$.%X(.Y.x v f E c c R ~.6X2Xl.4X4XqX7Xe.e.oX|.aX' | {.{.;.-.%.4 2 : 2 t G L Y K C % % % ",
"% $ $ % J P K d d d w D K Z K +.5.@XlX;X@X6X9X@X.XQ ..o.$.$.$.~.+Xu.1X4X0X7.[ { 2.7X$X8X6XaX%X'.=.=.<.2 : 2 0 r C D G C d K D % ",
"d 9 9 K ^ ^ P S 9 C G P K d P d 7.1X6XOX1X1X4X9X).$...p ....X.U.m v _ wXeX} ] ] ] &X/.#XkXkXaXR.=.=.O.: : < 2 r C C N F Z P K C ",
"K K G K G i t 2 3 G P G G G d e ! 1X0X1X1X<X1X6XY.o.& & & ....#.Q /.+XwXeX7X7X$.T.~.~.~.OXkX*X(.^.&.s 5 3 6 r C C r J P P G G F ",
"Z K G G G G S 5 3 : H D J J F ! z.1X<X2X<X<X<X<Xq.o.a a a 4 a a U.~.).9XqXwXwX$X).).).).$X@X*X%X).$.D w D q C d J 9.) Y P Y Z C ",
"9 C Z r D C i 0 2 = = e C H A.D.D.H.H.D.D.D.D.D.D.D.D.D.S.F.D.D.H.D.S.D.F.H.F.F.D.D.S.D.L.D.D.D.F.S.D.Y Y G G C 9.0.9.J F Z % $ ",
"9 d d C r y t 3 3 2 = X 8 9 R s.u.u.t.t.u.u.u.m u.u.u.t.m s.u.u.m u.u.u.t.m u.u.u.t.u.u.u.y.n u.u.u.' G G Y P Y 9.( T w C C C w ",
"G P K K r i 0 < : = = = 1 d V b b b l z n b v h v b b z z v b b h b b b z z b b v * v v b z l b b n V J D G D G D C ` G Y K K G ",
"K Y G G w 9 0 5 6 < - X 0 P H P.L.B.i.f.b.i.b.t.v.b.b.i.j.b.b.b.y.x.c.f.d.d.f.n.k.m k.d.c.d.y.c.y.y.V D P K G G J K S D P P P G ",
"G K C C J C N 5 > - 1 6 K Y i P.L.V.B.V.V.j.V.V.V.V.V.V.B.V.V.V.V.b.c.n.n.n.n.n.c.n.n.d.n.n.n.c.u.s.J G G K P P P G C D G Y P K ",
"C C r Y G J G % r S T ^ ^ T 0 F.L.C.V.V.V.j.V.V.V.V.V.V.V.V.V.V.V.b.c.c.n.n.n.n.c.c.n.d.n.c.c.n.u.y.J J G D C d w D G C G G Y G ",
"C C D G G U G N G D G P G C 4 A.P.C.V.V.V.j.B.V.B.M.M.M.b.M.M.V.V.m.c.c.h.f.c.c.n.n.c.f.n.c.c.f.u.W r w w w C G d d P D G Y P G ",
"N N % r G Z C F P P P G D 8 2 h.P.C.C.V.V.x.b.V.Z.lXxXxXxXxXxXxXxXxXxXxXxXxXxXxXN.n.c.f.n.n.n.f.u.W Z Y Y T P P G S 9.0.0.D D F ",
"N G G C N % N T Y J K d 0 < 2 a.P.C.V.V.B.x.b.V.Z.zXCXZXCXCXZXBXNXBXCXCXCXCXMXvXG.c.k.f.n.n.n.f.u.E Z K Y K P P G D Y ~ Y F C C ",
"F P G Y J C q.0.) U D G @ 3 2 a.P.S.V.V.V.v.b.V.Z.zXSXSXSXSXBXI.5Xm.mXSXSXSXAXvXG.n.c.f.n.n.c.d.u.R r F D G i S S ^ J ~ Y ~ J D ",
"F D P P J F 0.) U / F C i 4 2 a.P.S.V.V.b.b.c.V.Z.xXSXSXSXAXcXK.vXp.pXSXSXSXAXvXG.h.f.f.n.n.c.d.u.R G T T ^ H i S T D ` ~ G P P ",
"Y D G G G G T Y Y Y N N r e < R P.L.V.V.V.b.x.V.Z.xXSXSXSXnXr.cXAXvXK.vXSXSXAXvXG.c.j.k.c.c.n.d.y.R J T Y P i 3 3 D K J J J K P ",
"P G Y T T T Y F F ` ` F N N 4 R L.L.V.V.B.b.j.V.Z.xXSXSXSXCXZ.cXnXzXK.nXSXSXAXvXG.c.j.k.n.c.c.i.u.V G G i G i 3 2 8 C 0 P ~ P P ",
"P K T T T T Y G D F / U U r 0 ! P.L.V.V.V.V.j.V.Z.zXSXSXSXSXpXJ.I.r.pXSXSXSXAXvXG.n.j.k.c.c.c.u.y.r d 9 3 d 2 3 , + 0 H P ( P P ",
"P G P Y Y P K Y U C U ) F $ q N P.L.V.V.V.V.i.V.H.lXSXSXZXAXBXBXBXNXVXAXZXSXAXvXG.k.j.n.c.c.c.u.u.J r 8 : 3 : 2 : 1 < 8 P P L P ",
"D G P P P K Y K K S C N $ % C Y F.P.V.V.V.V.i.C.Z.xXSXSXiXyX3XyX3XuXrXtXtXAXAXvXG.n.d.c.c.c.c.y.s.^ D w 2 = : : : - + i G G D K ",
"G J P P Y K F r u i S w Z T Y Y F.P.C.V.V.V.i.C.Z.xXSXSXnXbXuXtXyXuXrXiXiXAXAXvXG.n.d.n.c.c.c.u.s.Y D J S X X : , , + d J G K P ",
"K C D G P J i 0 3 < > 8 Y T K Y A.P.C.B.V.C.i.V.D.zXMXBXMXMXmXmXmXmXmXmXmXnXmXcXG.c.d.n.n.c.k.u.W J G Y G r 3 : < + 0 D P P P P ",
"P 9.) / S 0 2 : - ; = 5 G P L K A.P.K.V.V.V.i.V.C.uXiXiXiXiXiXiXiXiXiXiXlXiXiXuXN.c.i.c.c.n.k.y.W D Y D K S 0 : < < r d G P P P ",
"~ ( ~ D 9 6 : < : : = 7 V G J D g.P.S.C.B.B.f.m.C.B.B.C.V.c.c.c.c.c.c.x.c.c.c.c.c.c.j.c.n.c.j.y.W 2 N S r N F r C T T Z D ~ P P ",
"D J D P i 2 1 2 , - = J Q S G J g.P.S.h.B.C.x.v.B.B.B.m.c.n.c.c.c.n.m.n.c.c.c.n.n.c.d.c.k.c.j.y.R q w N G C G D r Y P K ) / C D ",
"( P ~ J i < : 2 , , = ; 2 > Q i a.P.S.m.B.B.x.v.m.m.v.v.c.c.c.n.n.n.n.n.c.c.n.n.c.k.k.c.n.n.j.y.R i G P Y C D U C d d ` q.` C w ",
"P P ^ P i 0 1 2 , : - : : , , , R P.S.c.v.c.x.f.c.c.c.c.n.c.n.c.c.c.n.n.c.c.n.n.n.k.k.n.n.n.d.u.7 8 G P G G P C r C % ^ ) U ~ G ",
"P P P J i 4 2 2 2 : 2 : 2 , 0 , R F.S.c.c.N.k.j.c.c.c.c.c.c.c.n.c.c.c.c.n.n.n.n.n.j.c.c.c.c.u.u.M e d w w w r D G F G Y ~ ~ G J ",
"P P P J S d d e 2 3 : 3 2 2 S 3 t y.u.t.t.t.m n t.t.t.t.t.t.t.t.y.y.t.t.m m t.t.y.n t.m y.m n n H P P w 9 Z G Y Y D Y U S d r G ",
"P J J G C D J y 8 i 2 r 2 < D y e k E b v v b c E b * l h * * * * h h h h h h c c c x b x b c B J P 0.9.C 9 C D G Y 6.) C D C J ",
"G J K s d r C S D K 3 r t 3 S C U Y T j h h j V T R x x x x x x x x x x x x x E G V j h j j C F / ^ 0.~ T C Y ^ T 9.T 9.D N r J ",
"d ( ) D C Y C C P G d w w 1 q C Y T T I B ' I G G T I V B M I ! M ! ! I V I V S K G F ' B # % F Y Y / Y Y C Y G K K Y G C w % % ",
"S / ) ( G Y K d d C w G J S G d G Z G N g B M G S G G C r J F T I ( ` w I J D r C d g I . M Y 9.q./ K / Y C G G Z D J F C G F % ",
"r J ( T ^ / Y D ( G G P K d K C C G G F . . M C C N w S S P K D S / G J ^ ^ P S $ C M   . M Y T T Y Y 9.` F F C Z C F P F ` 0.( ",
"P J G G K K D Y C P P G G D C C d d 9 Z ! B M G N 6 w P K K G C J G J G K K D d C K Y I I I C Z Y I I / Y G G G D / G P / T / G ",
"D J D J Y G G / G T T D K K C K P C 9 9 S : 5 0 8 2 8 J G J r r D G D G K K D $ G T Y Z K K C K Y U U / Y N J N Y ` ( P Y Y G N ",
"P P G Y D D G F D C r ) ( C Z K P C D 3 5 : 6 < 1 < 5 i i 3 5 @ 3 0 C r D G G D Z C C F C C Z K Y Y Y Y ` / T T / J F J D D % % ",
"F C N J C D K G U K C / T r C Z C d H < 5 - 3 2 2 - + 3 < 6 ; : < + w C C G K G G J w N % % C Z Z U ` / ` ` ` U F G C w C C C w ",
"G Y P U C D P G Y G C F G C Z C 9 G y : 5 - < - : + : - : : ; 3 w G K K C D P G J G N % % C Z C % G K I G G F G F % % C U Y P G "
};
